<?xml version="1.0" encoding="UTF-8" standalone="no"?>
<svg
   xmlns:dc="http://purl.org/dc/elements/1.1/"
   xmlns:cc="http://creativecommons.org/ns#"
   xmlns:rdf="http://www.w3.org/1999/02/22-rdf-syntax-ns#"
   xmlns:svg="http://www.w3.org/2000/svg"
   xmlns="http://www.w3.org/2000/svg"
   xmlns:sodipodi="http://sodipodi.sourceforge.net/DTD/sodipodi-0.dtd"
   xmlns:inkscape="http://www.inkscape.org/namespaces/inkscape"
   width="930"
   height="584"
   viewBox="0 0 930 584"
   fill="none"
   version="1.1"
   id="svg70"
   sodipodi:docname="empty.svg"
   inkscape:version="0.92.5 (2060ec1f9f, 2020-04-08)">
  <metadata
     id="metadata74">
    <rdf:RDF>
      <cc:Work
         rdf:about="">
        <dc:format>image/svg+xml</dc:format>
        <dc:type
           rdf:resource="http://purl.org/dc/dcmitype/StillImage" />
      </cc:Work>
    </rdf:RDF>
  </metadata>
  <sodipodi:namedview
     pagecolor="#ffffff"
     bordercolor="#666666"
     borderopacity="1"
     objecttolerance="10"
     gridtolerance="10"
     guidetolerance="10"
     inkscape:pageopacity="0"
     inkscape:pageshadow="2"
     inkscape:window-width="1920"
     inkscape:window-height="1016"
     id="namedview72"
     showgrid="false"
     inkscape:zoom="0.52766893"
     inkscape:cx="546.45254"
     inkscape:cy="201.13129"
     inkscape:window-x="0"
     inkscape:window-y="27"
     inkscape:window-maximized="1"
     inkscape:current-layer="svg70" />
  <rect
     width="930"
     height="584"
     fill="white"
     id="rect2" />
  <path
     d="M429.71 476.364H427.614V484.295H427.511L422.034 476.364H420.148V488H422.256V480.074H422.352L427.835 488H429.71V476.364ZM435.723 488.17C438.28 488.17 439.905 486.369 439.905 483.67C439.905 480.966 438.28 479.159 435.723 479.159C433.166 479.159 431.541 480.966 431.541 483.67C431.541 486.369 433.166 488.17 435.723 488.17ZM435.734 486.523C434.32 486.523 433.626 485.261 433.626 483.665C433.626 482.068 434.32 480.79 435.734 480.79C437.126 480.79 437.82 482.068 437.82 483.665C437.82 485.261 437.126 486.523 435.734 486.523ZM449.653 488C453.199 488 455.301 485.807 455.301 482.17C455.301 478.545 453.199 476.364 449.733 476.364H445.71V488H449.653ZM447.818 486.176V478.188H449.614C451.977 478.188 453.21 479.506 453.21 482.17C453.21 484.847 451.977 486.176 449.551 486.176H447.818ZM459.724 488.176C461.094 488.176 461.912 487.534 462.287 486.801H462.355V488H464.332V482.159C464.332 479.852 462.452 479.159 460.787 479.159C458.952 479.159 457.543 479.977 457.088 481.568L459.009 481.841C459.213 481.244 459.793 480.733 460.798 480.733C461.753 480.733 462.276 481.222 462.276 482.08V482.114C462.276 482.705 461.656 482.733 460.116 482.898C458.423 483.08 456.804 483.585 456.804 485.551C456.804 487.267 458.06 488.176 459.724 488.176ZM460.259 486.665C459.401 486.665 458.787 486.273 458.787 485.517C458.787 484.727 459.474 484.398 460.395 484.267C460.935 484.193 462.014 484.057 462.281 483.841V484.869C462.281 485.841 461.497 486.665 460.259 486.665ZM470.759 479.273H469.037V477.182H466.98V479.273H465.741V480.864H466.98V485.716C466.969 487.358 468.162 488.165 469.707 488.119C470.293 488.102 470.696 487.989 470.918 487.915L470.571 486.307C470.457 486.335 470.224 486.386 469.969 486.386C469.452 486.386 469.037 486.205 469.037 485.375V480.864H470.759V479.273ZM474.99 488.176C476.359 488.176 477.178 487.534 477.553 486.801H477.621V488H479.598V482.159C479.598 479.852 477.717 479.159 476.053 479.159C474.217 479.159 472.808 479.977 472.354 481.568L474.274 481.841C474.479 481.244 475.058 480.733 476.064 480.733C477.018 480.733 477.541 481.222 477.541 482.08V482.114C477.541 482.705 476.922 482.733 475.382 482.898C473.689 483.08 472.07 483.585 472.07 485.551C472.07 487.267 473.325 488.176 474.99 488.176ZM475.524 486.665C474.666 486.665 474.053 486.273 474.053 485.517C474.053 484.727 474.74 484.398 475.661 484.267C476.2 484.193 477.28 484.057 477.547 483.841V484.869C477.547 485.841 476.763 486.665 475.524 486.665ZM484.93 476.364L489.163 483.659V488H491.266V483.659L495.499 476.364H493.118L490.271 481.511H490.158L487.311 476.364H484.93ZM499.139 488.17C501.173 488.17 502.571 487.176 502.935 485.659L501.014 485.443C500.736 486.182 500.054 486.568 499.168 486.568C497.838 486.568 496.957 485.693 496.94 484.199H503.02V483.568C503.02 480.506 501.179 479.159 499.031 479.159C496.531 479.159 494.901 480.994 494.901 483.688C494.901 486.426 496.509 488.17 499.139 488.17ZM496.946 482.812C497.009 481.699 497.832 480.761 499.06 480.761C500.241 480.761 501.037 481.625 501.048 482.812H496.946ZM509.118 479.273H507.396V477.182H505.339V479.273H504.101V480.864H505.339V485.716C505.328 487.358 506.521 488.165 508.067 488.119C508.652 488.102 509.055 487.989 509.277 487.915L508.93 486.307C508.817 486.335 508.584 486.386 508.328 486.386C507.811 486.386 507.396 486.205 507.396 485.375V480.864H509.118V479.273Z"
     fill="#293854"
     id="path4" />
  <path
     d="M332.11 513C331.732 510.912 330.061 509.679 328.013 509.679C325.408 509.679 323.519 511.688 323.519 514.909C323.519 518.131 325.408 520.139 328.013 520.139C330.061 520.139 331.732 518.906 332.11 516.818H330.877C330.578 518.23 329.365 518.986 328.013 518.986C326.164 518.986 324.712 517.554 324.712 514.909C324.712 512.264 326.164 510.832 328.013 510.832C329.365 510.832 330.578 511.588 330.877 513H332.11ZM337.045 520.159C339.113 520.159 340.506 518.588 340.506 516.222C340.506 513.835 339.113 512.264 337.045 512.264C334.977 512.264 333.585 513.835 333.585 516.222C333.585 518.588 334.977 520.159 337.045 520.159ZM337.045 519.105C335.474 519.105 334.758 517.753 334.758 516.222C334.758 514.69 335.474 513.318 337.045 513.318C338.616 513.318 339.332 514.69 339.332 516.222C339.332 517.753 338.616 519.105 337.045 519.105ZM342.297 520H343.47V515.227C343.47 514.109 344.285 513.318 345.2 513.318C346.09 513.318 346.711 513.9 346.711 514.77V520H347.904V515.028C347.904 514.044 348.521 513.318 349.595 513.318C350.43 513.318 351.146 513.761 351.146 514.889V520H352.319V514.889C352.319 513.094 351.355 512.264 349.993 512.264C348.899 512.264 348.098 512.766 347.706 513.557H347.626C347.248 512.741 346.582 512.264 345.578 512.264C344.583 512.264 343.848 512.741 343.529 513.557H343.43V512.364H342.297V520ZM354.464 522.864H355.638V518.827H355.737C355.996 519.244 356.493 520.159 357.964 520.159C359.874 520.159 361.206 518.628 361.206 516.202C361.206 513.795 359.874 512.264 357.945 512.264C356.453 512.264 355.996 513.179 355.737 513.577H355.598V512.364H354.464V522.864ZM355.618 516.182C355.618 514.472 356.374 513.318 357.805 513.318C359.297 513.318 360.033 514.571 360.033 516.182C360.033 517.812 359.277 519.105 357.805 519.105C356.393 519.105 355.618 517.912 355.618 516.182ZM364.169 509.818H362.996V520H364.169V509.818ZM369.52 520.159C371.071 520.159 372.204 519.384 372.562 518.23L371.429 517.912C371.131 518.707 370.439 519.105 369.52 519.105C368.143 519.105 367.193 518.215 367.138 516.58H372.682V516.082C372.682 513.239 370.991 512.264 369.4 512.264C367.332 512.264 365.96 513.895 365.96 516.241C365.96 518.588 367.312 520.159 369.52 520.159ZM367.138 515.565C367.218 514.377 368.058 513.318 369.4 513.318C370.673 513.318 371.488 514.273 371.488 515.565H367.138ZM377.787 512.364H376.157V510.534H374.983V512.364H373.83V513.358H374.983V518.131C374.983 519.463 376.057 520.099 377.052 520.099C377.489 520.099 377.768 520.02 377.927 519.96L377.688 518.906C377.589 518.926 377.43 518.966 377.171 518.966C376.654 518.966 376.157 518.807 376.157 517.812V513.358H377.787V512.364ZM382.672 520.159C384.223 520.159 385.357 519.384 385.715 518.23L384.581 517.912C384.283 518.707 383.592 519.105 382.672 519.105C381.295 519.105 380.345 518.215 380.291 516.58H385.834V516.082C385.834 513.239 384.144 512.264 382.553 512.264C380.485 512.264 379.112 513.895 379.112 516.241C379.112 518.588 380.465 520.159 382.672 520.159ZM380.291 515.565C380.37 514.377 381.21 513.318 382.553 513.318C383.825 513.318 384.641 514.273 384.641 515.565H380.291ZM394.877 512.364H393.247V510.534H392.073V512.364H390.92V513.358H392.073V518.131C392.073 519.463 393.147 520.099 394.142 520.099C394.579 520.099 394.857 520.02 395.017 519.96L394.778 518.906C394.678 518.926 394.519 518.966 394.261 518.966C393.744 518.966 393.247 518.807 393.247 517.812V513.358H394.877V512.364ZM397.98 515.406C397.98 514.074 398.83 513.318 399.988 513.318C401.092 513.318 401.758 514.014 401.758 515.227V520H402.931V515.148C402.931 513.184 401.887 512.264 400.326 512.264C399.123 512.264 398.437 512.766 398.079 513.557H397.98V509.818H396.806V520H397.98V515.406ZM408.279 520.159C409.831 520.159 410.964 519.384 411.322 518.23L410.189 517.912C409.89 518.707 409.199 519.105 408.279 519.105C406.902 519.105 405.953 518.215 405.898 516.58H411.441V516.082C411.441 513.239 409.751 512.264 408.16 512.264C406.092 512.264 404.72 513.895 404.72 516.241C404.72 518.588 406.072 520.159 408.279 520.159ZM405.898 515.565C405.978 514.377 406.818 513.318 408.16 513.318C409.433 513.318 410.248 514.273 410.248 515.565H405.898ZM420.564 512.364H418.854V511.588C418.854 510.832 419.172 510.435 419.948 510.435C420.286 510.435 420.485 510.514 420.604 510.554L420.942 509.54C420.763 509.46 420.405 509.341 419.828 509.341C418.735 509.341 417.681 509.997 417.681 511.31V512.364H416.448V513.358H417.681V520H418.854V513.358H420.564V512.364ZM422.209 520H423.382V512.364H422.209V520ZM422.805 511.091C423.263 511.091 423.64 510.733 423.64 510.295C423.64 509.858 423.263 509.5 422.805 509.5C422.348 509.5 421.97 509.858 421.97 510.295C421.97 510.733 422.348 511.091 422.805 511.091ZM428.733 520.159C430.284 520.159 431.417 519.384 431.775 518.23L430.642 517.912C430.343 518.707 429.652 519.105 428.733 519.105C427.355 519.105 426.406 518.215 426.351 516.58H431.895V516.082C431.895 513.239 430.204 512.264 428.613 512.264C426.545 512.264 425.173 513.895 425.173 516.241C425.173 518.588 426.525 520.159 428.733 520.159ZM426.351 515.565C426.431 514.377 427.271 513.318 428.613 513.318C429.886 513.318 430.701 514.273 430.701 515.565H426.351ZM434.853 509.818H433.679V520H434.853V509.818ZM439.885 520.159C441.357 520.159 441.854 519.244 442.112 518.827H442.252V520H443.385V509.818H442.212V513.577H442.112C441.854 513.179 441.396 512.264 439.905 512.264C437.976 512.264 436.644 513.795 436.644 516.202C436.644 518.628 437.976 520.159 439.885 520.159ZM440.044 519.105C438.573 519.105 437.817 517.812 437.817 516.182C437.817 514.571 438.553 513.318 440.044 513.318C441.476 513.318 442.232 514.472 442.232 516.182C442.232 517.912 441.456 519.105 440.044 519.105ZM451.106 514.074C450.738 512.99 449.913 512.264 448.401 512.264C446.791 512.264 445.597 513.179 445.597 514.472C445.597 515.526 446.224 516.232 447.626 516.56L448.899 516.858C449.669 517.037 450.032 517.405 450.032 517.932C450.032 518.588 449.336 519.125 448.242 519.125C447.283 519.125 446.681 518.712 446.472 517.892L445.359 518.17C445.632 519.468 446.701 520.159 448.262 520.159C450.037 520.159 451.245 519.19 451.245 517.872C451.245 516.808 450.579 516.137 449.217 515.804L448.083 515.526C447.178 515.302 446.771 514.999 446.771 514.412C446.771 513.756 447.467 513.278 448.401 513.278C449.426 513.278 449.848 513.845 450.052 514.372L451.106 514.074ZM459.196 520.179C460.528 520.179 461.224 519.463 461.463 518.966H461.523V520H462.696V514.969C462.696 512.543 460.847 512.264 459.872 512.264C458.719 512.264 457.406 512.662 456.81 514.054L457.923 514.452C458.182 513.895 458.793 513.298 459.912 513.298C460.991 513.298 461.523 513.87 461.523 514.849V514.889C461.523 515.456 460.946 515.406 459.554 515.585C458.137 515.769 456.591 516.082 456.591 517.832C456.591 519.324 457.744 520.179 459.196 520.179ZM459.375 519.125C458.44 519.125 457.764 518.707 457.764 517.892C457.764 516.997 458.58 516.719 459.494 516.599C459.991 516.54 461.324 516.401 461.523 516.162V517.236C461.523 518.19 460.767 519.125 459.375 519.125ZM466.011 515.406C466.011 514.074 466.836 513.318 467.96 513.318C469.048 513.318 469.71 514.029 469.71 515.227V520H470.883V515.148C470.883 513.199 469.844 512.264 468.298 512.264C467.144 512.264 466.428 512.781 466.07 513.557H465.971V512.364H464.838V520H466.011V515.406ZM475.911 520.159C477.382 520.159 477.879 519.244 478.138 518.827H478.277V520H479.411V509.818H478.237V513.577H478.138C477.879 513.179 477.422 512.264 475.93 512.264C474.001 512.264 472.669 513.795 472.669 516.202C472.669 518.628 474.001 520.159 475.911 520.159ZM476.07 519.105C474.598 519.105 473.842 517.812 473.842 516.182C473.842 514.571 474.578 513.318 476.07 513.318C477.501 513.318 478.257 514.472 478.257 516.182C478.257 517.912 477.482 519.105 476.07 519.105ZM486.833 509.818H485.66V520H486.833V509.818ZM492.084 520.159C494.153 520.159 495.545 518.588 495.545 516.222C495.545 513.835 494.153 512.264 492.084 512.264C490.016 512.264 488.624 513.835 488.624 516.222C488.624 518.588 490.016 520.159 492.084 520.159ZM492.084 519.105C490.513 519.105 489.797 517.753 489.797 516.222C489.797 514.69 490.513 513.318 492.084 513.318C493.655 513.318 494.371 514.69 494.371 516.222C494.371 517.753 493.655 519.105 492.084 519.105ZM499.583 520.179C500.915 520.179 501.611 519.463 501.85 518.966H501.909V520H503.083V514.969C503.083 512.543 501.233 512.264 500.259 512.264C499.105 512.264 497.793 512.662 497.196 514.054L498.31 514.452C498.569 513.895 499.18 513.298 500.299 513.298C501.377 513.298 501.909 513.87 501.909 514.849V514.889C501.909 515.456 501.333 515.406 499.941 515.585C498.524 515.769 496.978 516.082 496.978 517.832C496.978 519.324 498.131 520.179 499.583 520.179ZM499.762 519.125C498.827 519.125 498.151 518.707 498.151 517.892C498.151 516.997 498.966 516.719 499.881 516.599C500.378 516.54 501.711 516.401 501.909 516.162V517.236C501.909 518.19 501.154 519.125 499.762 519.125ZM508.108 520.159C509.579 520.159 510.077 519.244 510.335 518.827H510.474V520H511.608V509.818H510.434V513.577H510.335C510.077 513.179 509.619 512.264 508.128 512.264C506.199 512.264 504.866 513.795 504.866 516.202C504.866 518.628 506.199 520.159 508.108 520.159ZM508.267 519.105C506.795 519.105 506.04 517.812 506.04 516.182C506.04 514.571 506.775 513.318 508.267 513.318C509.699 513.318 510.454 514.472 510.454 516.182C510.454 517.912 509.679 519.105 508.267 519.105ZM518.613 522.864C519.672 522.864 520.417 522.302 520.86 521.114L524.111 512.384L522.829 512.364L520.721 518.449H520.641L518.533 512.364H517.26L520.084 520.04L519.866 520.636C519.438 521.8 518.911 521.909 518.056 521.69L517.758 522.724C517.877 522.784 518.215 522.864 518.613 522.864ZM528.493 520.159C530.561 520.159 531.953 518.588 531.953 516.222C531.953 513.835 530.561 512.264 528.493 512.264C526.424 512.264 525.032 513.835 525.032 516.222C525.032 518.588 526.424 520.159 528.493 520.159ZM528.493 519.105C526.922 519.105 526.206 517.753 526.206 516.222C526.206 514.69 526.922 513.318 528.493 513.318C530.064 513.318 530.779 514.69 530.779 516.222C530.779 517.753 530.064 519.105 528.493 519.105ZM538.556 516.878C538.556 518.31 537.463 518.966 536.588 518.966C535.613 518.966 534.917 518.25 534.917 517.136V512.364H533.744V517.216C533.744 519.165 534.778 520.099 536.21 520.099C537.363 520.099 538.119 519.483 538.477 518.707H538.556V520H539.73V512.364H538.556V516.878ZM541.879 520H543.052V515.168C543.052 514.134 543.867 513.378 544.981 513.378C545.294 513.378 545.617 513.438 545.697 513.457V512.264C545.562 512.254 545.254 512.244 545.08 512.244C544.165 512.244 543.37 512.761 543.092 513.517H543.012V512.364H541.879V520ZM553.909 520.159C555.38 520.159 555.877 519.244 556.136 518.827H556.275V520H557.409V509.818H556.235V513.577H556.136C555.877 513.179 555.42 512.264 553.928 512.264C551.999 512.264 550.667 513.795 550.667 516.202C550.667 518.628 551.999 520.159 553.909 520.159ZM554.068 519.105C552.596 519.105 551.84 517.812 551.84 516.182C551.84 514.571 552.576 513.318 554.068 513.318C555.499 513.318 556.255 514.472 556.255 516.182C556.255 517.912 555.48 519.105 554.068 519.105ZM561.968 520.179C563.3 520.179 563.996 519.463 564.235 518.966H564.294V520H565.468V514.969C565.468 512.543 563.618 512.264 562.644 512.264C561.49 512.264 560.178 512.662 559.581 514.054L560.695 514.452C560.953 513.895 561.565 513.298 562.683 513.298C563.762 513.298 564.294 513.87 564.294 514.849V514.889C564.294 515.456 563.718 515.406 562.325 515.585C560.909 515.769 559.362 516.082 559.362 517.832C559.362 519.324 560.516 520.179 561.968 520.179ZM562.146 519.125C561.212 519.125 560.536 518.707 560.536 517.892C560.536 516.997 561.351 516.719 562.266 516.599C562.763 516.54 564.095 516.401 564.294 516.162V517.236C564.294 518.19 563.539 519.125 562.146 519.125ZM570.93 512.364H569.299V510.534H568.126V512.364H566.973V513.358H568.126V518.131C568.126 519.463 569.2 520.099 570.194 520.099C570.632 520.099 570.91 520.02 571.069 519.96L570.831 518.906C570.731 518.926 570.572 518.966 570.314 518.966C569.797 518.966 569.299 518.807 569.299 517.812V513.358H570.93V512.364ZM574.942 520.179C576.275 520.179 576.971 519.463 577.209 518.966H577.269V520H578.442V514.969C578.442 512.543 576.593 512.264 575.618 512.264C574.465 512.264 573.152 512.662 572.556 514.054L573.669 514.452C573.928 513.895 574.539 513.298 575.658 513.298C576.737 513.298 577.269 513.87 577.269 514.849V514.889C577.269 515.456 576.692 515.406 575.3 515.585C573.883 515.769 572.337 516.082 572.337 517.832C572.337 519.324 573.49 520.179 574.942 520.179ZM575.121 519.125C574.186 519.125 573.51 518.707 573.51 517.892C573.51 516.997 574.326 516.719 575.24 516.599C575.738 516.54 577.07 516.401 577.269 516.162V517.236C577.269 518.19 576.513 519.125 575.121 519.125ZM584.521 520H585.694V512.364H584.521V520ZM585.118 511.091C585.575 511.091 585.953 510.733 585.953 510.295C585.953 509.858 585.575 509.5 585.118 509.5C584.66 509.5 584.282 509.858 584.282 510.295C584.282 510.733 584.66 511.091 585.118 511.091ZM589.017 515.406C589.017 514.074 589.842 513.318 590.966 513.318C592.054 513.318 592.716 514.029 592.716 515.227V520H593.889V515.148C593.889 513.199 592.85 512.264 591.304 512.264C590.15 512.264 589.434 512.781 589.076 513.557H588.977V512.364H587.843V520H589.017V515.406ZM599.354 512.364H597.723V510.534H596.55V512.364H595.396V513.358H596.55V518.131C596.55 519.463 597.624 520.099 598.618 520.099C599.056 520.099 599.334 520.02 599.493 519.96L599.254 518.906C599.155 518.926 598.996 518.966 598.737 518.966C598.22 518.966 597.723 518.807 597.723 517.812V513.358H599.354V512.364ZM604.139 520.159C606.207 520.159 607.599 518.588 607.599 516.222C607.599 513.835 606.207 512.264 604.139 512.264C602.071 512.264 600.679 513.835 600.679 516.222C600.679 518.588 602.071 520.159 604.139 520.159ZM604.139 519.105C602.568 519.105 601.852 517.753 601.852 516.222C601.852 514.69 602.568 513.318 604.139 513.318C605.71 513.318 606.426 514.69 606.426 516.222C606.426 517.753 605.71 519.105 604.139 519.105ZM358.387 532.364H356.756V530.534H355.583V532.364H354.43V533.358H355.583V538.131C355.583 539.463 356.657 540.099 357.651 540.099C358.089 540.099 358.367 540.02 358.526 539.96L358.288 538.906C358.188 538.926 358.029 538.966 357.771 538.966C357.254 538.966 356.756 538.807 356.756 537.812V533.358H358.387V532.364ZM361.489 535.406C361.489 534.074 362.339 533.318 363.498 533.318C364.602 533.318 365.268 534.014 365.268 535.227V540H366.441V535.148C366.441 533.184 365.397 532.264 363.836 532.264C362.633 532.264 361.947 532.766 361.589 533.557H361.489V529.818H360.316V540H361.489V535.406ZM371.789 540.159C373.34 540.159 374.474 539.384 374.832 538.23L373.698 537.912C373.4 538.707 372.709 539.105 371.789 539.105C370.412 539.105 369.463 538.215 369.408 536.58H374.951V536.082C374.951 533.239 373.261 532.264 371.67 532.264C369.602 532.264 368.23 533.895 368.23 536.241C368.23 538.588 369.582 540.159 371.789 540.159ZM369.408 535.565C369.487 534.377 370.328 533.318 371.67 533.318C372.943 533.318 373.758 534.273 373.758 535.565H369.408ZM380.673 540H381.847V532.364H380.673V540ZM381.27 531.091C381.727 531.091 382.105 530.733 382.105 530.295C382.105 529.858 381.727 529.5 381.27 529.5C380.813 529.5 380.435 529.858 380.435 530.295C380.435 530.733 380.813 531.091 381.27 531.091ZM385.169 535.406C385.169 534.074 385.994 533.318 387.118 533.318C388.207 533.318 388.868 534.029 388.868 535.227V540H390.041V535.148C390.041 533.199 389.002 532.264 387.456 532.264C386.303 532.264 385.587 532.781 385.229 533.557H385.129V532.364H383.996V540H385.169V535.406ZM392.185 542.864H393.358V538.827H393.458C393.716 539.244 394.214 540.159 395.685 540.159C397.594 540.159 398.927 538.628 398.927 536.202C398.927 533.795 397.594 532.264 395.665 532.264C394.174 532.264 393.716 533.179 393.458 533.577H393.319V532.364H392.185V542.864ZM393.339 536.182C393.339 534.472 394.094 533.318 395.526 533.318C397.018 533.318 397.753 534.571 397.753 536.182C397.753 537.812 396.998 539.105 395.526 539.105C394.114 539.105 393.339 537.912 393.339 536.182ZM405.529 536.878C405.529 538.31 404.435 538.966 403.56 538.966C402.586 538.966 401.89 538.25 401.89 537.136V532.364H400.716V537.216C400.716 539.165 401.751 540.099 403.182 540.099C404.336 540.099 405.091 539.483 405.449 538.707H405.529V540H406.702V532.364H405.529V536.878ZM412.172 532.364H410.542V530.534H409.368V532.364H408.215V533.358H409.368V538.131C409.368 539.463 410.442 540.099 411.436 540.099C411.874 540.099 412.152 540.02 412.311 539.96L412.073 538.906C411.973 538.926 411.814 538.966 411.556 538.966C411.039 538.966 410.542 538.807 410.542 537.812V533.358H412.172V532.364ZM421.275 532.364H419.565V531.588C419.565 530.832 419.883 530.435 420.659 530.435C420.997 530.435 421.196 530.514 421.315 530.554L421.653 529.54C421.474 529.46 421.116 529.341 420.539 529.341C419.446 529.341 418.392 529.997 418.392 531.31V532.364H417.159V533.358H418.392V540H419.565V533.358H421.275V532.364ZM425.707 540.159C427.776 540.159 429.168 538.588 429.168 536.222C429.168 533.835 427.776 532.264 425.707 532.264C423.639 532.264 422.247 533.835 422.247 536.222C422.247 538.588 423.639 540.159 425.707 540.159ZM425.707 539.105C424.136 539.105 423.42 537.753 423.42 536.222C423.42 534.69 424.136 533.318 425.707 533.318C427.278 533.318 427.994 534.69 427.994 536.222C427.994 537.753 427.278 539.105 425.707 539.105ZM430.959 540H432.132V535.168C432.132 534.134 432.947 533.378 434.061 533.378C434.374 533.378 434.697 533.438 434.777 533.457V532.264C434.643 532.254 434.334 532.244 434.16 532.244C433.246 532.244 432.45 532.761 432.172 533.517H432.092V532.364H430.959V540ZM436.168 540H437.341V535.227C437.341 534.109 438.156 533.318 439.071 533.318C439.961 533.318 440.582 533.9 440.582 534.77V540H441.776V535.028C441.776 534.044 442.392 533.318 443.466 533.318C444.301 533.318 445.017 533.761 445.017 534.889V540H446.19V534.889C446.19 533.094 445.226 532.264 443.864 532.264C442.77 532.264 441.969 532.766 441.577 533.557H441.497C441.119 532.741 440.453 532.264 439.449 532.264C438.455 532.264 437.719 532.741 437.401 533.557H437.301V532.364H436.168V540ZM455.375 540.159C457.444 540.159 458.836 538.588 458.836 536.222C458.836 533.835 457.444 532.264 455.375 532.264C453.307 532.264 451.915 533.835 451.915 536.222C451.915 538.588 453.307 540.159 455.375 540.159ZM455.375 539.105C453.804 539.105 453.088 537.753 453.088 536.222C453.088 534.69 453.804 533.318 455.375 533.318C456.946 533.318 457.662 534.69 457.662 536.222C457.662 537.753 456.946 539.105 455.375 539.105ZM461.8 535.406C461.8 534.074 462.625 533.318 463.749 533.318C464.838 533.318 465.499 534.029 465.499 535.227V540H466.672V535.148C466.672 533.199 465.633 532.264 464.087 532.264C462.933 532.264 462.218 532.781 461.86 533.557H461.76V532.364H460.627V540H461.8V535.406ZM476.075 532.364H474.444V530.534H473.271V532.364H472.117V533.358H473.271V538.131C473.271 539.463 474.344 540.099 475.339 540.099C475.776 540.099 476.055 540.02 476.214 539.96L475.975 538.906C475.876 538.926 475.717 538.966 475.458 538.966C474.941 538.966 474.444 538.807 474.444 537.812V533.358H476.075V532.364ZM479.177 535.406C479.177 534.074 480.027 533.318 481.185 533.318C482.289 533.318 482.955 534.014 482.955 535.227V540H484.129V535.148C484.129 533.184 483.085 532.264 481.523 532.264C480.32 532.264 479.634 532.766 479.276 533.557H479.177V529.818H478.004V540H479.177V535.406ZM489.477 540.159C491.028 540.159 492.161 539.384 492.519 538.23L491.386 537.912C491.088 538.707 490.396 539.105 489.477 539.105C488.1 539.105 487.15 538.215 487.095 536.58H492.639V536.082C492.639 533.239 490.948 532.264 489.357 532.264C487.289 532.264 485.917 533.895 485.917 536.241C485.917 538.588 487.269 540.159 489.477 540.159ZM487.095 535.565C487.175 534.377 488.015 533.318 489.357 533.318C490.63 533.318 491.445 534.273 491.445 535.565H487.095ZM499.534 529.818H498.361V540H499.534V529.818ZM504.885 540.159C506.436 540.159 507.57 539.384 507.928 538.23L506.794 537.912C506.496 538.707 505.805 539.105 504.885 539.105C503.508 539.105 502.558 538.215 502.504 536.58H508.047V536.082C508.047 533.239 506.357 532.264 504.766 532.264C502.697 532.264 501.325 533.895 501.325 536.241C501.325 538.588 502.678 540.159 504.885 540.159ZM502.504 535.565C502.583 534.377 503.423 533.318 504.766 533.318C506.038 533.318 506.854 534.273 506.854 535.565H502.504ZM513.232 532.364H511.522V531.588C511.522 530.832 511.84 530.435 512.616 530.435C512.954 530.435 513.153 530.514 513.272 530.554L513.61 529.54C513.431 529.46 513.073 529.341 512.496 529.341C511.403 529.341 510.349 529.997 510.349 531.31V532.364H509.116V533.358H510.349V540H511.522V533.358H513.232V532.364ZM518.198 532.364H516.567V530.534H515.394V532.364H514.24V533.358H515.394V538.131C515.394 539.463 516.468 540.099 517.462 540.099C517.899 540.099 518.178 540.02 518.337 539.96L518.098 538.906C517.999 538.926 517.84 538.966 517.581 538.966C517.064 538.966 516.567 538.807 516.567 537.812V533.358H518.198V532.364ZM527.221 532.364H525.59V530.534H524.417V532.364H523.264V533.358H524.417V538.131C524.417 539.463 525.491 540.099 526.485 540.099C526.923 540.099 527.201 540.02 527.36 539.96L527.122 538.906C527.022 538.926 526.863 538.966 526.605 538.966C526.088 538.966 525.59 538.807 525.59 537.812V533.358H527.221V532.364ZM532.006 540.159C534.074 540.159 535.466 538.588 535.466 536.222C535.466 533.835 534.074 532.264 532.006 532.264C529.938 532.264 528.546 533.835 528.546 536.222C528.546 538.588 529.938 540.159 532.006 540.159ZM532.006 539.105C530.435 539.105 529.719 537.753 529.719 536.222C529.719 534.69 530.435 533.318 532.006 533.318C533.577 533.318 534.293 534.69 534.293 536.222C534.293 537.753 533.577 539.105 532.006 539.105ZM541.354 540H542.488V538.827H542.627C542.885 539.244 543.382 540.159 544.854 540.159C546.763 540.159 548.096 538.628 548.096 536.202C548.096 533.795 546.763 532.264 544.834 532.264C543.343 532.264 542.885 533.179 542.627 533.577H542.527V529.818H541.354V540ZM542.507 536.182C542.507 534.472 543.263 533.318 544.695 533.318C546.186 533.318 546.922 534.571 546.922 536.182C546.922 537.812 546.167 539.105 544.695 539.105C543.283 539.105 542.507 537.912 542.507 536.182ZM553.092 540.159C554.643 540.159 555.777 539.384 556.135 538.23L555.001 537.912C554.703 538.707 554.012 539.105 553.092 539.105C551.715 539.105 550.765 538.215 550.711 536.58H556.254V536.082C556.254 533.239 554.564 532.264 552.973 532.264C550.904 532.264 549.532 533.895 549.532 536.241C549.532 538.588 550.885 540.159 553.092 540.159ZM550.711 535.565C550.79 534.377 551.63 533.318 552.973 533.318C554.245 533.318 555.061 534.273 555.061 535.565H550.711ZM561.121 543.023C562.951 543.023 564.422 542.188 564.422 540.219V532.364H563.289V533.577H563.169C562.911 533.179 562.434 532.264 560.942 532.264C559.013 532.264 557.681 533.795 557.681 536.142C557.681 538.528 559.073 539.881 560.922 539.881C562.414 539.881 562.891 539.006 563.15 538.588H563.249V540.139C563.249 541.412 562.354 541.989 561.121 541.989C559.734 541.989 559.247 541.258 558.934 540.835L557.999 541.491C558.476 542.292 559.416 543.023 561.121 543.023ZM561.081 538.827C559.61 538.827 558.854 537.713 558.854 536.122C558.854 534.571 559.59 533.318 561.081 533.318C562.513 533.318 563.269 534.472 563.269 536.122C563.269 537.812 562.493 538.827 561.081 538.827ZM566.57 540H567.743V532.364H566.57V540ZM567.167 531.091C567.624 531.091 568.002 530.733 568.002 530.295C568.002 529.858 567.624 529.5 567.167 529.5C566.709 529.5 566.331 529.858 566.331 530.295C566.331 530.733 566.709 531.091 567.167 531.091ZM571.066 535.406C571.066 534.074 571.891 533.318 573.014 533.318C574.103 533.318 574.764 534.029 574.764 535.227V540H575.938V535.148C575.938 533.199 574.899 532.264 573.352 532.264C572.199 532.264 571.483 532.781 571.125 533.557H571.026V532.364H569.892V540H571.066V535.406Z"
     fill="#73839C"
     id="path6" />
  <g
     clip-path="url(#clip0_0:1)"
     id="g46"
     transform="translate(60)">
    <path
       d="M 400.317,386.058 C 347.575,381.88 212.437,363.62 201.586,207.733 190.735,51.8458 393.809,39.9671 466.844,133.346 c 73.035,93.379 155.844,127.479 147.859,163.111 -7.985,35.632 -161.644,93.779 -214.386,89.601 z"
       id="path8"
       inkscape:connector-curvature="0"
       style="fill:#eaeef2" />
    <g
       id="g12"
       style="filter:url(#filter0_d_0:1)">
      <path
         d="M 585,131 H 240 c -2.761,0 -5,2.239 -5,5 v 227 c 0,2.761 2.239,5 5,5 h 345 c 2.761,0 5,-2.239 5,-5 V 136 c 0,-2.761 -2.239,-5 -5,-5 z"
         id="path10"
         inkscape:connector-curvature="0"
         style="fill:#ffffff" />
    </g>
    <path
       d="M 477,416 H 343 v 9 h 134 z"
       id="path14"
       inkscape:connector-curvature="0"
       style="fill:#eaeef2" />
    <g
       id="g18"
       style="opacity:0.62400004">
      <path
         d="m 308,51.714 h -4.286 V 56 h -1.428 V 51.714 H 298 v -1.428 h 4.286 V 46 h 1.429 v 4.286 H 308 Z"
         id="path16"
         inkscape:connector-curvature="0"
         style="opacity:0.62400004;fill:#233952" />
    </g>
    <g
       id="g22"
       style="opacity:0.62400004">
      <path
         d="m 341,56.714 h -4.286 V 61 h -1.428 V 56.714 H 331 v -1.428 h 4.286 V 51 h 1.429 v 4.286 H 341 Z"
         id="path20"
         inkscape:connector-curvature="0"
         style="opacity:0.62400004;fill:#233952" />
    </g>
    <g
       id="g26"
       style="opacity:0.62400004">
      <path
         d="m 375,64.714 h -4.286 V 69 h -1.428 V 64.714 H 365 v -1.428 h 4.286 V 59 h 1.429 v 4.286 H 375 Z"
         id="path24"
         inkscape:connector-curvature="0"
         style="opacity:0.62400004;fill:#233952" />
    </g>
    <g
       id="g30"
       style="opacity:0.62400004">
      <path
         d="m 274,64.714 h -4.286 V 69 h -1.428 V 64.714 H 264 v -1.428 h 4.286 V 59 h 1.429 v 4.286 H 274 Z"
         id="path28"
         inkscape:connector-curvature="0"
         style="opacity:0.62400004;fill:#233952" />
    </g>
    <g
       id="g34"
       style="opacity:0.62400004">
      <path
         d="m 243,84.714 h -4.286 V 89 h -1.428 V 84.714 H 233 v -1.428 h 4.286 V 79 h 1.429 v 4.286 H 243 Z"
         id="path32"
         inkscape:connector-curvature="0"
         style="opacity:0.62400004;fill:#233952" />
    </g>
    <g
       id="g38"
       style="opacity:0.62400004">
      <path
         d="m 216,109.714 h -4.286 V 114 h -1.428 v -4.286 H 206 v -1.428 h 4.286 V 104 h 1.429 v 4.286 H 216 Z"
         id="path36"
         inkscape:connector-curvature="0"
         style="opacity:0.62400004;fill:#233952" />
    </g>
    <rect
       x="356"
       y="277"
       width="26"
       height="22.5"
       rx="3"
       id="rect40"
       style="opacity:0.4;fill:#1493a4" />
    <rect
       x="388"
       y="257"
       width="26"
       height="42.5"
       rx="3"
       id="rect42"
       style="opacity:0.4;fill:#1493a4" />
    <rect
       x="420"
       y="214"
       width="26"
       height="85"
       rx="3"
       id="rect44"
       style="opacity:0.4;fill:#1493a4" />
  </g>
  <defs
     id="defs68">
    <filter
       id="filter0_d_0:1"
       x="227"
       y="123"
       width="383"
       height="265"
       filterUnits="userSpaceOnUse"
       color-interpolation-filters="sRGB">
      <feFlood
         flood-opacity="0"
         result="BackgroundImageFix"
         id="feFlood48" />
      <feColorMatrix
         in="SourceAlpha"
         type="matrix"
         values="0 0 0 0 0 0 0 0 0 0 0 0 0 0 0 0 0 0 127 0"
         result="hardAlpha"
         id="feColorMatrix50" />
      <feMorphology
         radius="2"
         operator="dilate"
         in="SourceAlpha"
         result="effect1_dropShadow_0:1"
         id="feMorphology52" />
      <feOffset
         dx="6"
         dy="6"
         id="feOffset54" />
      <feGaussianBlur
         stdDeviation="6"
         id="feGaussianBlur56" />
      <feColorMatrix
         type="matrix"
         values="0 0 0 0 0.0875 0 0 0 0 0.0856771 0 0 0 0 0.0856771 0 0 0 0.06 0"
         id="feColorMatrix58" />
      <feBlend
         mode="normal"
         in2="BackgroundImageFix"
         result="effect1_dropShadow_0:1"
         id="feBlend60" />
      <feBlend
         mode="normal"
         in="SourceGraphic"
         in2="effect1_dropShadow_0:1"
         result="shape"
         id="feBlend62" />
    </filter>
    <clipPath
       id="clip0_0:1">
      <rect
         width="414.238"
         height="384"
         fill="white"
         transform="translate(201 41)"
         id="rect65" />
    </clipPath>
  </defs>
</svg>
