<svg width="930" height="584" viewBox="0 0 930 584" fill="none" xmlns="http://www.w3.org/2000/svg">
<rect width="930" height="584" fill="white"/>
<path d="M407.943 480.08H410.091C409.733 477.795 407.756 476.205 405.182 476.205C402.136 476.205 399.852 478.443 399.852 482.193C399.852 485.875 402.034 488.159 405.244 488.159C408.125 488.159 410.188 486.307 410.188 483.307V481.909H405.466V483.557H408.148C408.114 485.216 407.006 486.267 405.256 486.267C403.307 486.267 401.972 484.807 401.972 482.17C401.972 479.551 403.33 478.097 405.21 478.097C406.614 478.097 407.568 478.847 407.943 480.08ZM415.999 488.17C418.033 488.17 419.43 487.176 419.794 485.659L417.874 485.443C417.595 486.182 416.913 486.568 416.027 486.568C414.697 486.568 413.817 485.693 413.8 484.199H419.879V483.568C419.879 480.506 418.038 479.159 415.891 479.159C413.391 479.159 411.76 480.994 411.76 483.688C411.76 486.426 413.368 488.17 415.999 488.17ZM413.805 482.812C413.868 481.699 414.692 480.761 415.919 480.761C417.101 480.761 417.896 481.625 417.908 482.812H413.805ZM423.676 482.886C423.676 481.625 424.438 480.898 425.523 480.898C426.585 480.898 427.222 481.597 427.222 482.761V488H429.278V482.443C429.284 480.352 428.091 479.159 426.29 479.159C424.983 479.159 424.085 479.784 423.688 480.756H423.585V479.273H421.619V488H423.676V482.886ZM435.233 488.17C437.267 488.17 438.665 487.176 439.028 485.659L437.108 485.443C436.83 486.182 436.148 486.568 435.261 486.568C433.932 486.568 433.051 485.693 433.034 484.199H439.114V483.568C439.114 480.506 437.273 479.159 435.125 479.159C432.625 479.159 430.994 480.994 430.994 483.688C430.994 486.426 432.602 488.17 435.233 488.17ZM433.04 482.812C433.102 481.699 433.926 480.761 435.153 480.761C436.335 480.761 437.131 481.625 437.142 482.812H433.04ZM440.854 488H442.911V482.869C442.911 481.761 443.746 480.977 444.876 480.977C445.223 480.977 445.655 481.04 445.831 481.097V479.205C445.643 479.17 445.32 479.148 445.092 479.148C444.092 479.148 443.257 479.716 442.939 480.727H442.848V479.273H440.854V488ZM449.537 488.176C450.906 488.176 451.724 487.534 452.099 486.801H452.168V488H454.145V482.159C454.145 479.852 452.264 479.159 450.599 479.159C448.764 479.159 447.355 479.977 446.901 481.568L448.821 481.841C449.026 481.244 449.605 480.733 450.611 480.733C451.565 480.733 452.088 481.222 452.088 482.08V482.114C452.088 482.705 451.469 482.733 449.929 482.898C448.236 483.08 446.616 483.585 446.616 485.551C446.616 487.267 447.872 488.176 449.537 488.176ZM450.071 486.665C449.213 486.665 448.599 486.273 448.599 485.517C448.599 484.727 449.287 484.398 450.207 484.267C450.747 484.193 451.827 484.057 452.094 483.841V484.869C452.094 485.841 451.31 486.665 450.071 486.665ZM460.571 479.273H458.849V477.182H456.793V479.273H455.554V480.864H456.793V485.716C456.781 487.358 457.974 488.165 459.52 488.119C460.105 488.102 460.509 487.989 460.73 487.915L460.384 486.307C460.27 486.335 460.037 486.386 459.781 486.386C459.264 486.386 458.849 486.205 458.849 485.375V480.864H460.571V479.273ZM466.061 488.17C468.095 488.17 469.493 487.176 469.857 485.659L467.936 485.443C467.658 486.182 466.976 486.568 466.089 486.568C464.76 486.568 463.879 485.693 463.862 484.199H469.942V483.568C469.942 480.506 468.101 479.159 465.953 479.159C463.453 479.159 461.822 480.994 461.822 483.688C461.822 486.426 463.43 488.17 466.061 488.17ZM463.868 482.812C463.93 481.699 464.754 480.761 465.982 480.761C467.163 480.761 467.959 481.625 467.97 482.812H463.868ZM483.537 480.08H485.685C485.327 477.795 483.349 476.205 480.776 476.205C477.73 476.205 475.446 478.443 475.446 482.193C475.446 485.875 477.628 488.159 480.838 488.159C483.719 488.159 485.781 486.307 485.781 483.307V481.909H481.06V483.557H483.741C483.707 485.216 482.599 486.267 480.849 486.267C478.901 486.267 477.565 484.807 477.565 482.17C477.565 479.551 478.923 478.097 480.804 478.097C482.207 478.097 483.162 478.847 483.537 480.08ZM487.729 488H489.786V482.869C489.786 481.761 490.621 480.977 491.751 480.977C492.098 480.977 492.53 481.04 492.706 481.097V479.205C492.518 479.17 492.195 479.148 491.967 479.148C490.967 479.148 490.132 479.716 489.814 480.727H489.723V479.273H487.729V488ZM496.412 488.176C497.781 488.176 498.599 487.534 498.974 486.801H499.043V488H501.02V482.159C501.02 479.852 499.139 479.159 497.474 479.159C495.639 479.159 494.23 479.977 493.776 481.568L495.696 481.841C495.901 481.244 496.48 480.733 497.486 480.733C498.44 480.733 498.963 481.222 498.963 482.08V482.114C498.963 482.705 498.344 482.733 496.804 482.898C495.111 483.08 493.491 483.585 493.491 485.551C493.491 487.267 494.747 488.176 496.412 488.176ZM496.946 486.665C496.088 486.665 495.474 486.273 495.474 485.517C495.474 484.727 496.162 484.398 497.082 484.267C497.622 484.193 498.702 484.057 498.969 483.841V484.869C498.969 485.841 498.185 486.665 496.946 486.665ZM503.088 491.273H505.145V486.625H505.23C505.554 487.261 506.23 488.153 507.73 488.153C509.787 488.153 511.327 486.523 511.327 483.648C511.327 480.739 509.741 479.159 507.724 479.159C506.185 479.159 505.543 480.085 505.23 480.716H505.111V479.273H503.088V491.273ZM505.105 483.636C505.105 481.943 505.832 480.847 507.156 480.847C508.526 480.847 509.23 482.011 509.23 483.636C509.23 485.273 508.514 486.466 507.156 486.466C505.844 486.466 505.105 485.33 505.105 483.636ZM515.145 482.886C515.145 481.625 515.929 480.898 517.031 480.898C518.111 480.898 518.747 481.585 518.747 482.761V488H520.804V482.443C520.804 480.335 519.611 479.159 517.798 479.159C516.457 479.159 515.605 479.767 515.202 480.756H515.099V476.364H513.088V488H515.145V482.886ZM529.798 481.58C529.514 480.102 528.332 479.159 526.287 479.159C524.185 479.159 522.753 480.193 522.759 481.807C522.753 483.08 523.537 483.92 525.213 484.267L526.702 484.58C527.503 484.756 527.878 485.08 527.878 485.574C527.878 486.17 527.23 486.619 526.253 486.619C525.31 486.619 524.696 486.21 524.52 485.426L522.514 485.619C522.77 487.222 524.116 488.17 526.259 488.17C528.44 488.17 529.98 487.04 529.986 485.386C529.98 484.142 529.179 483.381 527.531 483.023L526.043 482.705C525.156 482.506 524.804 482.199 524.81 481.693C524.804 481.102 525.457 480.693 526.315 480.693C527.264 480.693 527.764 481.21 527.923 481.784L529.798 481.58Z" fill="#293854"/>
<path d="M330.391 513H331.664C331.286 511.031 329.636 509.679 327.488 509.679C324.878 509.679 323.033 511.688 323.033 514.909C323.033 518.131 324.863 520.139 327.568 520.139C329.994 520.139 331.724 518.523 331.724 516.003V514.909H327.846V516.003H330.531C330.496 517.832 329.293 518.986 327.568 518.986C325.678 518.986 324.227 517.554 324.227 514.909C324.227 512.264 325.678 510.832 327.488 510.832C328.96 510.832 329.959 511.663 330.391 513ZM336.878 520.159C338.429 520.159 339.563 519.384 339.921 518.23L338.787 517.912C338.489 518.707 337.798 519.105 336.878 519.105C335.501 519.105 334.551 518.215 334.497 516.58H340.04V516.082C340.04 513.239 338.35 512.264 336.759 512.264C334.691 512.264 333.318 513.895 333.318 516.241C333.318 518.588 334.671 520.159 336.878 520.159ZM334.497 515.565C334.576 514.377 335.416 513.318 336.759 513.318C338.032 513.318 338.847 514.273 338.847 515.565H334.497ZM342.998 515.406C342.998 514.074 343.823 513.318 344.947 513.318C346.036 513.318 346.697 514.029 346.697 515.227V520H347.87V515.148C347.87 513.199 346.831 512.264 345.285 512.264C344.132 512.264 343.416 512.781 343.058 513.557H342.958V512.364H341.825V520H342.998V515.406ZM353.216 520.159C354.767 520.159 355.901 519.384 356.259 518.23L355.125 517.912C354.827 518.707 354.136 519.105 353.216 519.105C351.839 519.105 350.889 518.215 350.835 516.58H356.378V516.082C356.378 513.239 354.688 512.264 353.097 512.264C351.028 512.264 349.656 513.895 349.656 516.241C349.656 518.588 351.009 520.159 353.216 520.159ZM350.835 515.565C350.914 514.377 351.754 513.318 353.097 513.318C354.369 513.318 355.185 514.273 355.185 515.565H350.835ZM358.163 520H359.336V515.168C359.336 514.134 360.151 513.378 361.265 513.378C361.578 513.378 361.901 513.438 361.981 513.457V512.264C361.847 512.254 361.538 512.244 361.364 512.244C360.45 512.244 359.654 512.761 359.376 513.517H359.296V512.364H358.163V520ZM365.619 520.179C366.951 520.179 367.647 519.463 367.886 518.966H367.946V520H369.119V514.969C369.119 512.543 367.269 512.264 366.295 512.264C365.142 512.264 363.829 512.662 363.233 514.054L364.346 514.452C364.605 513.895 365.216 513.298 366.335 513.298C367.414 513.298 367.946 513.87 367.946 514.849V514.889C367.946 515.456 367.369 515.406 365.977 515.585C364.56 515.769 363.014 516.082 363.014 517.832C363.014 519.324 364.167 520.179 365.619 520.179ZM365.798 519.125C364.863 519.125 364.187 518.707 364.187 517.892C364.187 516.997 365.002 516.719 365.917 516.599C366.414 516.54 367.747 516.401 367.946 516.162V517.236C367.946 518.19 367.19 519.125 365.798 519.125ZM374.581 512.364H372.951V510.534H371.777V512.364H370.624V513.358H371.777V518.131C371.777 519.463 372.851 520.099 373.846 520.099C374.283 520.099 374.562 520.02 374.721 519.96L374.482 518.906C374.383 518.926 374.223 518.966 373.965 518.966C373.448 518.966 372.951 518.807 372.951 517.812V513.358H374.581V512.364ZM379.466 520.159C381.017 520.159 382.151 519.384 382.509 518.23L381.375 517.912C381.077 518.707 380.386 519.105 379.466 519.105C378.089 519.105 377.139 518.215 377.085 516.58H382.628V516.082C382.628 513.239 380.938 512.264 379.347 512.264C377.278 512.264 375.906 513.895 375.906 516.241C375.906 518.588 377.259 520.159 379.466 520.159ZM377.085 515.565C377.164 514.377 378.004 513.318 379.347 513.318C380.619 513.318 381.435 514.273 381.435 515.565H377.085ZM391.433 523.023C393.262 523.023 394.734 522.188 394.734 520.219V512.364H393.6V513.577H393.481C393.222 513.179 392.745 512.264 391.254 512.264C389.325 512.264 387.992 513.795 387.992 516.142C387.992 518.528 389.384 519.881 391.234 519.881C392.725 519.881 393.203 519.006 393.461 518.588H393.56V520.139C393.56 521.412 392.666 521.989 391.433 521.989C390.046 521.989 389.558 521.258 389.245 520.835L388.31 521.491C388.788 522.292 389.727 523.023 391.433 523.023ZM391.393 518.827C389.921 518.827 389.166 517.713 389.166 516.122C389.166 514.571 389.901 513.318 391.393 513.318C392.825 513.318 393.58 514.472 393.58 516.122C393.58 517.812 392.805 518.827 391.393 518.827ZM396.881 520H398.055V515.168C398.055 514.134 398.87 513.378 399.984 513.378C400.297 513.378 400.62 513.438 400.7 513.457V512.264C400.565 512.254 400.257 512.244 400.083 512.244C399.168 512.244 398.373 512.761 398.095 513.517H398.015V512.364H396.881V520ZM404.338 520.179C405.67 520.179 406.366 519.463 406.605 518.966H406.664V520H407.838V514.969C407.838 512.543 405.988 512.264 405.014 512.264C403.86 512.264 402.548 512.662 401.951 514.054L403.065 514.452C403.323 513.895 403.935 513.298 405.054 513.298C406.132 513.298 406.664 513.87 406.664 514.849V514.889C406.664 515.456 406.088 515.406 404.696 515.585C403.279 515.769 401.733 516.082 401.733 517.832C401.733 519.324 402.886 520.179 404.338 520.179ZM404.517 519.125C403.582 519.125 402.906 518.707 402.906 517.892C402.906 516.997 403.721 516.719 404.636 516.599C405.133 516.54 406.465 516.401 406.664 516.162V517.236C406.664 518.19 405.909 519.125 404.517 519.125ZM409.979 522.864H411.152V518.827H411.252C411.51 519.244 412.008 520.159 413.479 520.159C415.388 520.159 416.721 518.628 416.721 516.202C416.721 513.795 415.388 512.264 413.459 512.264C411.968 512.264 411.51 513.179 411.252 513.577H411.113V512.364H409.979V522.864ZM411.133 516.182C411.133 514.472 411.888 513.318 413.32 513.318C414.812 513.318 415.547 514.571 415.547 516.182C415.547 517.812 414.792 519.105 413.32 519.105C411.908 519.105 411.133 517.912 411.133 516.182ZM419.684 515.406C419.684 514.074 420.534 513.318 421.692 513.318C422.796 513.318 423.462 514.014 423.462 515.227V520H424.635V515.148C424.635 513.184 423.591 512.264 422.03 512.264C420.827 512.264 420.141 512.766 419.783 513.557H419.684V509.818H418.51V520H419.684V515.406ZM432.191 514.074C431.823 512.99 430.998 512.264 429.486 512.264C427.876 512.264 426.682 513.179 426.682 514.472C426.682 515.526 427.309 516.232 428.711 516.56L429.984 516.858C430.754 517.037 431.117 517.405 431.117 517.932C431.117 518.588 430.421 519.125 429.327 519.125C428.368 519.125 427.766 518.712 427.557 517.892L426.444 518.17C426.717 519.468 427.786 520.159 429.347 520.159C431.122 520.159 432.33 519.19 432.33 517.872C432.33 516.808 431.664 516.137 430.302 515.804L429.168 515.526C428.263 515.302 427.856 514.999 427.856 514.412C427.856 513.756 428.552 513.278 429.486 513.278C430.511 513.278 430.933 513.845 431.137 514.372L432.191 514.074ZM438.193 520H439.326V518.827H439.466C439.724 519.244 440.221 520.159 441.693 520.159C443.602 520.159 444.934 518.628 444.934 516.202C444.934 513.795 443.602 512.264 441.673 512.264C440.182 512.264 439.724 513.179 439.466 513.577H439.366V509.818H438.193V520ZM439.346 516.182C439.346 514.472 440.102 513.318 441.534 513.318C443.025 513.318 443.761 514.571 443.761 516.182C443.761 517.812 443.005 519.105 441.534 519.105C440.122 519.105 439.346 517.912 439.346 516.182ZM447.211 522.864C448.27 522.864 449.016 522.302 449.459 521.114L452.71 512.384L451.427 512.364L449.319 518.449H449.24L447.132 512.364H445.859L448.683 520.04L448.464 520.636C448.037 521.8 447.51 521.909 446.655 521.69L446.356 522.724C446.476 522.784 446.814 522.864 447.211 522.864ZM463.609 514.074C463.241 512.99 462.416 512.264 460.904 512.264C459.294 512.264 458.1 513.179 458.1 514.472C458.1 515.526 458.727 516.232 460.129 516.56L461.402 516.858C462.172 517.037 462.535 517.405 462.535 517.932C462.535 518.588 461.839 519.125 460.745 519.125C459.786 519.125 459.184 518.712 458.975 517.892L457.862 518.17C458.135 519.468 459.204 520.159 460.765 520.159C462.54 520.159 463.748 519.19 463.748 517.872C463.748 516.808 463.082 516.137 461.72 515.804L460.586 515.526C459.681 515.302 459.274 514.999 459.274 514.412C459.274 513.756 459.97 513.278 460.904 513.278C461.929 513.278 462.351 513.845 462.555 514.372L463.609 514.074ZM468.716 520.159C470.267 520.159 471.401 519.384 471.759 518.23L470.625 517.912C470.327 518.707 469.636 519.105 468.716 519.105C467.339 519.105 466.389 518.215 466.335 516.58H471.878V516.082C471.878 513.239 470.188 512.264 468.597 512.264C466.528 512.264 465.156 513.895 465.156 516.241C465.156 518.588 466.509 520.159 468.716 520.159ZM466.335 515.565C466.414 514.377 467.254 513.318 468.597 513.318C469.869 513.318 470.685 514.273 470.685 515.565H466.335ZM474.836 509.818H473.663V520H474.836V509.818ZM480.187 520.159C481.738 520.159 482.871 519.384 483.229 518.23L482.096 517.912C481.797 518.707 481.106 519.105 480.187 519.105C478.81 519.105 477.86 518.215 477.805 516.58H483.349V516.082C483.349 513.239 481.658 512.264 480.067 512.264C477.999 512.264 476.627 513.895 476.627 516.241C476.627 518.588 477.979 520.159 480.187 520.159ZM477.805 515.565C477.885 514.377 478.725 513.318 480.067 513.318C481.34 513.318 482.155 514.273 482.155 515.565H477.805ZM488.236 520.159C489.926 520.159 491.04 519.125 491.239 517.773H490.065C489.847 518.608 489.15 519.105 488.236 519.105C486.844 519.105 485.949 517.952 485.949 516.182C485.949 514.452 486.864 513.318 488.236 513.318C489.27 513.318 489.886 513.955 490.065 514.651H491.239C491.04 513.219 489.827 512.264 488.216 512.264C486.148 512.264 484.775 513.895 484.775 516.222C484.775 518.509 486.088 520.159 488.236 520.159ZM496.275 512.364H494.644V510.534H493.471V512.364H492.317V513.358H493.471V518.131C493.471 519.463 494.545 520.099 495.539 520.099C495.976 520.099 496.255 520.02 496.414 519.96L496.175 518.906C496.076 518.926 495.917 518.966 495.658 518.966C495.141 518.966 494.644 518.807 494.644 517.812V513.358H496.275V512.364ZM498.04 520H499.213V512.364H498.04V520ZM498.636 511.091C499.094 511.091 499.472 510.733 499.472 510.295C499.472 509.858 499.094 509.5 498.636 509.5C498.179 509.5 497.801 509.858 497.801 510.295C497.801 510.733 498.179 511.091 498.636 511.091ZM502.535 515.406C502.535 514.074 503.361 513.318 504.484 513.318C505.573 513.318 506.234 514.029 506.234 515.227V520H507.407V515.148C507.407 513.199 506.368 512.264 504.822 512.264C503.669 512.264 502.953 512.781 502.595 513.557H502.495V512.364H501.362V520H502.535V515.406ZM512.634 523.023C514.463 523.023 515.935 522.188 515.935 520.219V512.364H514.801V513.577H514.682C514.424 513.179 513.946 512.264 512.455 512.264C510.526 512.264 509.193 513.795 509.193 516.142C509.193 518.528 510.585 519.881 512.435 519.881C513.926 519.881 514.404 519.006 514.662 518.588H514.762V520.139C514.762 521.412 513.867 521.989 512.634 521.989C511.247 521.989 510.759 521.258 510.446 520.835L509.512 521.491C509.989 522.292 510.929 523.023 512.634 523.023ZM512.594 518.827C511.122 518.827 510.367 517.713 510.367 516.122C510.367 514.571 511.103 513.318 512.594 513.318C514.026 513.318 514.782 514.472 514.782 516.122C514.782 517.812 514.006 518.827 512.594 518.827ZM522.776 522.864C523.835 522.864 524.581 522.302 525.023 521.114L528.274 512.384L526.992 512.364L524.884 518.449H524.804L522.696 512.364H521.424L524.247 520.04L524.029 520.636C523.601 521.8 523.074 521.909 522.219 521.69L521.921 522.724C522.04 522.784 522.378 522.864 522.776 522.864ZM532.656 520.159C534.724 520.159 536.116 518.588 536.116 516.222C536.116 513.835 534.724 512.264 532.656 512.264C530.587 512.264 529.195 513.835 529.195 516.222C529.195 518.588 530.587 520.159 532.656 520.159ZM532.656 519.105C531.085 519.105 530.369 517.753 530.369 516.222C530.369 514.69 531.085 513.318 532.656 513.318C534.227 513.318 534.943 514.69 534.943 516.222C534.943 517.753 534.227 519.105 532.656 519.105ZM542.719 516.878C542.719 518.31 541.626 518.966 540.751 518.966C539.776 518.966 539.08 518.25 539.08 517.136V512.364H537.907V517.216C537.907 519.165 538.941 520.099 540.373 520.099C541.526 520.099 542.282 519.483 542.64 518.707H542.719V520H543.893V512.364H542.719V516.878ZM546.042 520H547.215V515.168C547.215 514.134 548.03 513.378 549.144 513.378C549.457 513.378 549.78 513.438 549.86 513.457V512.264C549.726 512.254 549.417 512.244 549.243 512.244C548.329 512.244 547.533 512.761 547.255 513.517H547.175V512.364H546.042V520ZM560.597 514.074C560.229 512.99 559.404 512.264 557.893 512.264C556.282 512.264 555.089 513.179 555.089 514.472C555.089 515.526 555.715 516.232 557.117 516.56L558.39 516.858C559.16 517.037 559.523 517.405 559.523 517.932C559.523 518.588 558.827 519.125 557.734 519.125C556.774 519.125 556.172 518.712 555.964 517.892L554.85 518.17C555.123 519.468 556.192 520.159 557.753 520.159C559.528 520.159 560.736 519.19 560.736 517.872C560.736 516.808 560.07 516.137 558.708 515.804L557.574 515.526C556.67 515.302 556.262 514.999 556.262 514.412C556.262 513.756 556.958 513.278 557.893 513.278C558.917 513.278 559.339 513.845 559.543 514.372L560.597 514.074ZM564.75 520.179C566.082 520.179 566.778 519.463 567.017 518.966H567.076V520H568.25V514.969C568.25 512.543 566.4 512.264 565.426 512.264C564.272 512.264 562.96 512.662 562.363 514.054L563.477 514.452C563.736 513.895 564.347 513.298 565.466 513.298C566.544 513.298 567.076 513.87 567.076 514.849V514.889C567.076 515.456 566.5 515.406 565.108 515.585C563.691 515.769 562.145 516.082 562.145 517.832C562.145 519.324 563.298 520.179 564.75 520.179ZM564.929 519.125C563.994 519.125 563.318 518.707 563.318 517.892C563.318 516.997 564.133 516.719 565.048 516.599C565.545 516.54 566.878 516.401 567.076 516.162V517.236C567.076 518.19 566.321 519.125 564.929 519.125ZM570.391 520H571.565V515.227C571.565 514.109 572.38 513.318 573.295 513.318C574.185 513.318 574.806 513.9 574.806 514.77V520H575.999V515.028C575.999 514.044 576.616 513.318 577.69 513.318C578.525 513.318 579.241 513.761 579.241 514.889V520H580.414V514.889C580.414 513.094 579.449 512.264 578.087 512.264C576.994 512.264 576.193 512.766 575.8 513.557H575.721C575.343 512.741 574.677 512.264 573.672 512.264C572.678 512.264 571.942 512.741 571.624 513.557H571.525V512.364H570.391V520ZM582.559 522.864H583.733V518.827H583.832C584.09 519.244 584.588 520.159 586.059 520.159C587.968 520.159 589.301 518.628 589.301 516.202C589.301 513.795 587.968 512.264 586.039 512.264C584.548 512.264 584.09 513.179 583.832 513.577H583.693V512.364H582.559V522.864ZM583.713 516.182C583.713 514.472 584.468 513.318 585.9 513.318C587.392 513.318 588.127 514.571 588.127 516.182C588.127 517.812 587.372 519.105 585.9 519.105C584.488 519.105 583.713 517.912 583.713 516.182ZM592.264 509.818H591.09V520H592.264V509.818ZM597.614 520.159C599.166 520.159 600.299 519.384 600.657 518.23L599.524 517.912C599.225 518.707 598.534 519.105 597.614 519.105C596.237 519.105 595.288 518.215 595.233 516.58H600.776V516.082C600.776 513.239 599.086 512.264 597.495 512.264C595.427 512.264 594.055 513.895 594.055 516.241C594.055 518.588 595.407 520.159 597.614 520.159ZM595.233 515.565C595.313 514.377 596.153 513.318 597.495 513.318C598.768 513.318 599.583 514.273 599.583 515.565H595.233ZM607.97 514.074C607.602 512.99 606.777 512.264 605.266 512.264C603.655 512.264 602.462 513.179 602.462 514.472C602.462 515.526 603.088 516.232 604.49 516.56L605.763 516.858C606.533 517.037 606.896 517.405 606.896 517.932C606.896 518.588 606.2 519.125 605.107 519.125C604.147 519.125 603.546 518.712 603.337 517.892L602.223 518.17C602.497 519.468 603.565 520.159 605.127 520.159C606.901 520.159 608.109 519.19 608.109 517.872C608.109 516.808 607.443 516.137 606.081 515.804L604.948 515.526C604.043 515.302 603.635 514.999 603.635 514.412C603.635 513.756 604.331 513.278 605.266 513.278C606.29 513.278 606.712 513.845 606.916 514.372L607.97 514.074ZM379.708 540.179C381.04 540.179 381.736 539.463 381.975 538.966H382.034V540H383.208V534.969C383.208 532.543 381.358 532.264 380.384 532.264C379.23 532.264 377.918 532.662 377.321 534.054L378.435 534.452C378.694 533.895 379.305 533.298 380.424 533.298C381.502 533.298 382.034 533.87 382.034 534.849V534.889C382.034 535.456 381.458 535.406 380.066 535.585C378.649 535.769 377.103 536.082 377.103 537.832C377.103 539.324 378.256 540.179 379.708 540.179ZM379.887 539.125C378.952 539.125 378.276 538.707 378.276 537.892C378.276 536.997 379.091 536.719 380.006 536.599C380.503 536.54 381.836 536.401 382.034 536.162V537.236C382.034 538.19 381.279 539.125 379.887 539.125ZM386.523 535.406C386.523 534.074 387.348 533.318 388.471 533.318C389.56 533.318 390.221 534.029 390.221 535.227V540H391.395V535.148C391.395 533.199 390.356 532.264 388.809 532.264C387.656 532.264 386.94 532.781 386.582 533.557H386.483V532.364H385.349V540H386.523V535.406ZM396.422 540.159C397.894 540.159 398.391 539.244 398.65 538.827H398.789V540H399.922V529.818H398.749V533.577H398.65C398.391 533.179 397.934 532.264 396.442 532.264C394.513 532.264 393.181 533.795 393.181 536.202C393.181 538.628 394.513 540.159 396.422 540.159ZM396.581 539.105C395.11 539.105 394.354 537.812 394.354 536.182C394.354 534.571 395.09 533.318 396.581 533.318C398.013 533.318 398.769 534.472 398.769 536.182C398.769 537.912 397.993 539.105 396.581 539.105ZM406.172 542.864H407.345V538.827H407.444C407.703 539.244 408.2 540.159 409.672 540.159C411.581 540.159 412.913 538.628 412.913 536.202C412.913 533.795 411.581 532.264 409.652 532.264C408.16 532.264 407.703 533.179 407.444 533.577H407.305V532.364H406.172V542.864ZM407.325 536.182C407.325 534.472 408.081 533.318 409.512 533.318C411.004 533.318 411.74 534.571 411.74 536.182C411.74 537.812 410.984 539.105 409.512 539.105C408.1 539.105 407.325 537.912 407.325 536.182ZM415.876 529.818H414.703V540H415.876V529.818ZM421.127 540.159C423.195 540.159 424.588 538.588 424.588 536.222C424.588 533.835 423.195 532.264 421.127 532.264C419.059 532.264 417.667 533.835 417.667 536.222C417.667 538.588 419.059 540.159 421.127 540.159ZM421.127 539.105C419.556 539.105 418.84 537.753 418.84 536.222C418.84 534.69 419.556 533.318 421.127 533.318C422.698 533.318 423.414 534.69 423.414 536.222C423.414 537.753 422.698 539.105 421.127 539.105ZM429.7 532.364H428.069V530.534H426.896V532.364H425.742V533.358H426.896V538.131C426.896 539.463 427.969 540.099 428.964 540.099C429.401 540.099 429.68 540.02 429.839 539.96L429.6 538.906C429.501 538.926 429.342 538.966 429.083 538.966C428.566 538.966 428.069 538.807 428.069 537.812V533.358H429.7V532.364ZM434.786 532.364H433.155V530.534H431.982V532.364H430.828V533.358H431.982V538.131C431.982 539.463 433.055 540.099 434.05 540.099C434.487 540.099 434.766 540.02 434.925 539.96L434.686 538.906C434.587 538.926 434.428 538.966 434.169 538.966C433.652 538.966 433.155 538.807 433.155 537.812V533.358H434.786V532.364ZM436.55 540H437.724V532.364H436.55V540ZM437.147 531.091C437.604 531.091 437.982 530.733 437.982 530.295C437.982 529.858 437.604 529.5 437.147 529.5C436.69 529.5 436.312 529.858 436.312 530.295C436.312 530.733 436.69 531.091 437.147 531.091ZM441.046 535.406C441.046 534.074 441.871 533.318 442.995 533.318C444.084 533.318 444.745 534.029 444.745 535.227V540H445.918V535.148C445.918 533.199 444.879 532.264 443.333 532.264C442.18 532.264 441.464 532.781 441.106 533.557H441.006V532.364H439.873V540H441.046V535.406ZM451.145 543.023C452.974 543.023 454.446 542.188 454.446 540.219V532.364H453.312V533.577H453.193C452.934 533.179 452.457 532.264 450.966 532.264C449.037 532.264 447.704 533.795 447.704 536.142C447.704 538.528 449.096 539.881 450.946 539.881C452.437 539.881 452.914 539.006 453.173 538.588H453.272V540.139C453.272 541.412 452.377 541.989 451.145 541.989C449.757 541.989 449.27 541.258 448.957 540.835L448.022 541.491C448.5 542.292 449.439 543.023 451.145 543.023ZM451.105 538.827C449.633 538.827 448.877 537.713 448.877 536.122C448.877 534.571 449.613 533.318 451.105 533.318C452.537 533.318 453.292 534.472 453.292 536.122C453.292 537.812 452.517 538.827 451.105 538.827ZM460.531 540H461.704V535.227C461.704 534.109 462.52 533.318 463.434 533.318C464.324 533.318 464.946 533.9 464.946 534.77V540H466.139V535.028C466.139 534.044 466.755 533.318 467.829 533.318C468.664 533.318 469.38 533.761 469.38 534.889V540H470.554V534.889C470.554 533.094 469.589 532.264 468.227 532.264C467.133 532.264 466.333 532.766 465.94 533.557H465.86C465.483 532.741 464.816 532.264 463.812 532.264C462.818 532.264 462.082 532.741 461.764 533.557H461.664V532.364H460.531V540ZM475.901 540.159C477.452 540.159 478.585 539.384 478.943 538.23L477.81 537.912C477.511 538.707 476.82 539.105 475.901 539.105C474.523 539.105 473.574 538.215 473.519 536.58H479.062V536.082C479.062 533.239 477.372 532.264 475.781 532.264C473.713 532.264 472.341 533.895 472.341 536.241C472.341 538.588 473.693 540.159 475.901 540.159ZM473.519 535.565C473.599 534.377 474.439 533.318 475.781 533.318C477.054 533.318 477.869 534.273 477.869 535.565H473.519ZM484.168 532.364H482.538V530.534H481.364V532.364H480.211V533.358H481.364V538.131C481.364 539.463 482.438 540.099 483.433 540.099C483.87 540.099 484.148 540.02 484.308 539.96L484.069 538.906C483.969 538.926 483.81 538.966 483.552 538.966C483.035 538.966 482.538 538.807 482.538 537.812V533.358H484.168V532.364ZM487.271 535.406C487.271 534.074 488.121 533.318 489.279 533.318C490.383 533.318 491.049 534.014 491.049 535.227V540H492.222V535.148C492.222 533.184 491.178 532.264 489.617 532.264C488.414 532.264 487.728 532.766 487.37 533.557H487.271V529.818H486.097V540H487.271V535.406ZM497.471 540.159C499.539 540.159 500.931 538.588 500.931 536.222C500.931 533.835 499.539 532.264 497.471 532.264C495.403 532.264 494.011 533.835 494.011 536.222C494.011 538.588 495.403 540.159 497.471 540.159ZM497.471 539.105C495.9 539.105 495.184 537.753 495.184 536.222C495.184 534.69 495.9 533.318 497.471 533.318C499.042 533.318 499.758 534.69 499.758 536.222C499.758 537.753 499.042 539.105 497.471 539.105ZM505.606 540.159C507.077 540.159 507.575 539.244 507.833 538.827H507.972V540H509.106V529.818H507.933V533.577H507.833C507.575 533.179 507.117 532.264 505.626 532.264C503.697 532.264 502.364 533.795 502.364 536.202C502.364 538.628 503.697 540.159 505.606 540.159ZM505.765 539.105C504.293 539.105 503.538 537.812 503.538 536.182C503.538 534.571 504.273 533.318 505.765 533.318C507.197 533.318 507.952 534.472 507.952 536.182C507.952 537.912 507.177 539.105 505.765 539.105ZM517.602 540.179C518.935 540.179 519.631 539.463 519.869 538.966H519.929V540H521.102V534.969C521.102 532.543 519.253 532.264 518.278 532.264C517.125 532.264 515.812 532.662 515.216 534.054L516.33 534.452C516.588 533.895 517.2 533.298 518.318 533.298C519.397 533.298 519.929 533.87 519.929 534.849V534.889C519.929 535.456 519.352 535.406 517.96 535.585C516.543 535.769 514.997 536.082 514.997 537.832C514.997 539.324 516.151 540.179 517.602 540.179ZM517.781 539.125C516.847 539.125 516.17 538.707 516.17 537.892C516.17 536.997 516.986 536.719 517.901 536.599C518.398 536.54 519.73 536.401 519.929 536.162V537.236C519.929 538.19 519.173 539.125 517.781 539.125ZM523.403 540H524.536V538.827H524.676C524.934 539.244 525.431 540.159 526.903 540.159C528.812 540.159 530.144 538.628 530.144 536.202C530.144 533.795 528.812 532.264 526.883 532.264C525.392 532.264 524.934 533.179 524.676 533.577H524.576V529.818H523.403V540ZM524.556 536.182C524.556 534.472 525.312 533.318 526.744 533.318C528.235 533.318 528.971 534.571 528.971 536.182C528.971 537.812 528.215 539.105 526.744 539.105C525.332 539.105 524.556 537.912 524.556 536.182ZM535.041 540.159C537.11 540.159 538.502 538.588 538.502 536.222C538.502 533.835 537.11 532.264 535.041 532.264C532.973 532.264 531.581 533.835 531.581 536.222C531.581 538.588 532.973 540.159 535.041 540.159ZM535.041 539.105C533.47 539.105 532.754 537.753 532.754 536.222C532.754 534.69 533.47 533.318 535.041 533.318C536.612 533.318 537.328 534.69 537.328 536.222C537.328 537.753 536.612 539.105 535.041 539.105ZM546.263 532.364H544.991L542.883 538.449H542.803L540.695 532.364H539.423L542.246 540H543.44L546.263 532.364ZM550.74 540.159C552.292 540.159 553.425 539.384 553.783 538.23L552.65 537.912C552.351 538.707 551.66 539.105 550.74 539.105C549.363 539.105 548.414 538.215 548.359 536.58H553.902V536.082C553.902 533.239 552.212 532.264 550.621 532.264C548.553 532.264 547.181 533.895 547.181 536.241C547.181 538.588 548.533 540.159 550.74 540.159ZM548.359 535.565C548.439 534.377 549.279 533.318 550.621 533.318C551.894 533.318 552.709 534.273 552.709 535.565H548.359Z" fill="#73839C"/>
<g clip-path="url(#clip0_0:1)">
<path d="M457.317 387.058C404.575 382.88 269.437 364.62 258.586 208.733C247.735 52.8458 450.809 40.9671 523.844 134.346C596.879 227.725 679.688 261.825 671.703 297.457C663.718 333.089 510.059 391.236 457.317 387.058Z" fill="#EAEEF2"/>
<g filter="url(#filter0_d_0:1)">
<path d="M642 132H297C294.239 132 292 134.239 292 137V364C292 366.761 294.239 369 297 369H642C644.761 369 647 366.761 647 364V137C647 134.239 644.761 132 642 132Z" fill="white"/>
</g>
<path d="M534 417H400V426H534V417Z" fill="#EAEEF2"/>
<g opacity="0.624">
<path opacity="0.624" d="M365 52.714H360.714V57H359.286V52.714H355V51.286H359.286V47H360.715V51.286H365V52.714Z" fill="#233952"/>
</g>
<g opacity="0.624">
<path opacity="0.624" d="M398 57.714H393.714V62H392.286V57.714H388V56.286H392.286V52H393.715V56.286H398V57.714Z" fill="#233952"/>
</g>
<g opacity="0.624">
<path opacity="0.624" d="M432 65.714H427.714V70H426.286V65.714H422V64.286H426.286V60H427.715V64.286H432V65.714Z" fill="#233952"/>
</g>
<g opacity="0.624">
<path opacity="0.624" d="M331 65.714H326.714V70H325.286V65.714H321V64.286H325.286V60H326.715V64.286H331V65.714Z" fill="#233952"/>
</g>
<g opacity="0.624">
<path opacity="0.624" d="M300 85.714H295.714V90H294.286V85.714H290V84.286H294.286V80H295.715V84.286H300V85.714Z" fill="#233952"/>
</g>
<g opacity="0.624">
<path opacity="0.624" d="M273 110.714H268.714V115H267.286V110.714H263V109.286H267.286V105H268.715V109.286H273V110.714Z" fill="#233952"/>
</g>
<rect opacity="0.4" x="413" y="278" width="26" height="22.5" rx="3" fill="#1493A4"/>
<rect opacity="0.4" x="445" y="258" width="26" height="42.5" rx="3" fill="#1493A4"/>
<rect opacity="0.4" x="477" y="215" width="26" height="85" rx="3" fill="#1493A4"/>
</g>
<defs>
<filter id="filter0_d_0:1" x="284" y="124" width="383" height="265" filterUnits="userSpaceOnUse" color-interpolation-filters="sRGB">
<feFlood flood-opacity="0" result="BackgroundImageFix"/>
<feColorMatrix in="SourceAlpha" type="matrix" values="0 0 0 0 0 0 0 0 0 0 0 0 0 0 0 0 0 0 127 0" result="hardAlpha"/>
<feMorphology radius="2" operator="dilate" in="SourceAlpha" result="effect1_dropShadow_0:1"/>
<feOffset dx="6" dy="6"/>
<feGaussianBlur stdDeviation="6"/>
<feColorMatrix type="matrix" values="0 0 0 0 0.0875 0 0 0 0 0.0856771 0 0 0 0 0.0856771 0 0 0 0.06 0"/>
<feBlend mode="normal" in2="BackgroundImageFix" result="effect1_dropShadow_0:1"/>
<feBlend mode="normal" in="SourceGraphic" in2="effect1_dropShadow_0:1" result="shape"/>
</filter>
<clipPath id="clip0_0:1">
<rect width="414.238" height="384" fill="white" transform="translate(258 42)"/>
</clipPath>
</defs>
</svg>

