<?xml version="1.0" encoding="UTF-8" standalone="no"?>
<svg
   xmlns:dc="http://purl.org/dc/elements/1.1/"
   xmlns:cc="http://creativecommons.org/ns#"
   xmlns:rdf="http://www.w3.org/1999/02/22-rdf-syntax-ns#"
   xmlns:svg="http://www.w3.org/2000/svg"
   xmlns="http://www.w3.org/2000/svg"
   xmlns:sodipodi="http://sodipodi.sourceforge.net/DTD/sodipodi-0.dtd"
   xmlns:inkscape="http://www.inkscape.org/namespaces/inkscape"
   width="673.99304"
   height="423.23865"
   viewBox="0 0 673.99304 423.23864"
   version="1.1"
   id="svg70"
   sodipodi:docname="plot_placeholder.svg"
   style="fill:none"
   inkscape:version="0.92.5 (2060ec1f9f, 2020-04-08)">
  <metadata
     id="metadata74">
    <rdf:RDF>
      <cc:Work
         rdf:about="">
        <dc:format>image/svg+xml</dc:format>
        <dc:type
           rdf:resource="http://purl.org/dc/dcmitype/StillImage" />
      </cc:Work>
    </rdf:RDF>
  </metadata>
  <sodipodi:namedview
     pagecolor="#ffffff"
     bordercolor="#666666"
     borderopacity="1"
     objecttolerance="10"
     gridtolerance="10"
     guidetolerance="10"
     inkscape:pageopacity="0"
     inkscape:pageshadow="2"
     inkscape:window-width="1920"
     inkscape:window-height="1016"
     id="namedview72"
     showgrid="false"
     inkscape:zoom="1.0553379"
     inkscape:cx="466.62255"
     inkscape:cy="84.826564"
     inkscape:window-x="0"
     inkscape:window-y="27"
     inkscape:window-maximized="1"
     inkscape:current-layer="svg70" />
  <rect
     width="673.99304"
     height="423.23865"
     id="rect2"
     x="0"
     y="0"
     style="fill:#ffffff;stroke-width:0.7247237" />
  <path
     d="m 295.64597,347.92536 h 1.5567 c -0.25944,-1.65599 -1.69222,-2.8083 -3.55766,-2.8083 -2.20751,0 -3.86278,1.62194 -3.86278,4.33965 0,2.66843 1.58135,4.3237 3.90771,4.3237 2.08793,0 3.58304,-1.34219 3.58304,-3.51636 v -1.01316 h -3.42215 v 1.19434 h 1.94371 c -0.0247,1.20232 -0.82763,1.964 -2.09591,1.964 -1.41247,0 -2.37998,-1.0581 -2.37998,-2.96919 0,-1.89805 0.98417,-2.9518 2.34665,-2.9518 1.01752,0 1.7089,0.54354 1.98067,1.43712 z m 5.83838,5.86302 c 1.47409,0 2.48652,-0.72038 2.75032,-1.81978 l -1.39147,-0.15654 c -0.2022,0.53557 -0.69646,0.81531 -1.33856,0.81531 -0.96388,0 -1.60164,-0.63413 -1.61397,-1.71687 h 4.40561 v -0.45729 c 0,-2.21911 -1.33422,-3.19531 -2.89021,-3.19531 -1.8118,0 -2.99383,1.32986 -2.99383,3.28227 0,1.9843 1.16536,3.24821 3.07211,3.24821 z m -1.59005,-3.88307 c 0.0457,-0.80661 0.64283,-1.4864 1.53207,-1.4864 0.85662,0 1.43278,0.62615 1.44147,1.4864 z m 7.15375,0.0536 c 0,-0.91388 0.55224,-1.44074 1.33856,-1.44074 0.76966,0 1.23131,0.50657 1.23131,1.35015 v 3.79683 h 1.49004 v -4.02729 c 0.005,-1.5154 -0.86026,-2.37999 -2.16549,-2.37999 -0.94721,0 -1.59801,0.45295 -1.88572,1.15738 h -0.0746 v -1.07476 h -1.42481 v 6.32466 h 1.49075 z m 8.37563,3.82944 c 1.47409,0 2.48725,-0.72038 2.75033,-1.81978 l -1.39147,-0.15654 c -0.20147,0.53558 -0.69574,0.81531 -1.33857,0.81531 -0.96316,0 -1.60164,-0.63413 -1.61395,-1.71686 h 4.40631 v -0.4573 c 0,-2.21911 -1.33421,-3.19531 -2.89092,-3.19531 -1.81181,0 -2.99383,1.32987 -2.99383,3.28227 0,1.9843 1.16535,3.24821 3.0721,3.24821 z m -1.58931,-3.88307 c 0.0449,-0.80661 0.64209,-1.4864 1.53133,-1.4864 0.85663,0 1.4335,0.62615 1.44148,1.4864 z m 5.66298,3.75987 h 1.49076 v -3.71855 c 0,-0.803 0.60515,-1.37118 1.42408,-1.37118 0.25148,0 0.56456,0.0456 0.69211,0.087 v -1.37118 c -0.13625,-0.0253 -0.37033,-0.0413 -0.53557,-0.0413 -0.72472,0 -1.32986,0.41165 -1.56033,1.14434 h -0.066 v -1.05374 h -1.44509 z m 6.29278,0.12755 c 0.99214,0 1.58497,-0.46527 1.85675,-0.9965 h 0.05 v 0.86895 h 1.43278 v -4.23311 c 0,-1.67194 -1.36321,-2.17417 -2.56987,-2.17417 -1.32987,0 -2.35101,0.59282 -2.68004,1.74586 l 1.39147,0.19784 c 0.14858,-0.43265 0.56819,-0.80298 1.29726,-0.80298 0.69139,0 1.07042,0.35439 1.07042,0.97619 v 0.0246 c 0,0.42831 -0.44861,0.44861 -1.56468,0.56819 -1.22696,0.1319 -2.40101,0.49788 -2.40101,1.92268 0,1.24363 0.91025,1.90241 2.11692,1.90241 z m 0.38701,-1.09505 c -0.62182,0 -1.0668,-0.2841 -1.0668,-0.83198 0,-0.57254 0.49861,-0.81097 1.16535,-0.90592 0.39135,-0.0536 1.17406,-0.15219 1.36756,-0.30873 v 0.74502 c 0,0.70443 -0.56819,1.30161 -1.46611,1.30161 z m 7.60959,-5.35716 h -1.24797 v -1.5154 h -1.49003 v 1.5154 h -0.89794 v 1.15303 h 0.89794 v 3.51636 c -0.008,1.19 0.85589,1.77485 1.97632,1.74151 0.42396,-0.0123 0.71674,-0.0942 0.87691,-0.14784 l -0.25075,-1.16536 c -0.0826,0.0203 -0.25148,0.0573 -0.43701,0.0573 -0.37468,0 -0.67544,-0.13117 -0.67544,-0.73269 v -3.26923 h 1.24797 z m 3.97873,6.44786 c 1.47409,0 2.48726,-0.72038 2.75105,-1.81978 l -1.39219,-0.15654 c -0.20147,0.53558 -0.69574,0.81531 -1.33857,0.81531 -0.96315,0 -1.60163,-0.63413 -1.61395,-1.71686 h 4.40632 v -0.4573 c 0,-2.21911 -1.33422,-3.19531 -2.89092,-3.19531 -1.81182,0 -2.99384,1.32987 -2.99384,3.28227 0,1.9843 1.16536,3.24821 3.0721,3.24821 z m -1.58931,-3.88307 c 0.0449,-0.80661 0.6421,-1.4864 1.53206,-1.4864 0.8559,0 1.43278,0.62615 1.44075,1.4864 z m 14.25459,-1.97994 h 1.5567 c -0.25945,-1.65599 -1.69295,-2.80831 -3.55767,-2.80831 -2.20751,0 -3.86277,1.62194 -3.86277,4.33965 0,2.66843 1.58134,4.32371 3.90771,4.32371 2.08793,0 3.58231,-1.3422 3.58231,-3.51637 v -1.01316 h -3.42142 v 1.19434 h 1.94298 c -0.0246,1.20232 -0.82763,1.964 -2.09591,1.964 -1.41176,0 -2.37998,-1.05809 -2.37998,-2.96919 0,-1.89805 0.98417,-2.95179 2.34737,-2.95179 1.0168,0 1.70891,0.54353 1.98068,1.43712 z m 3.03804,5.73981 h 1.49076 v -3.71855 c 0,-0.803 0.60514,-1.37118 1.42408,-1.37118 0.25148,0 0.56456,0.0456 0.69211,0.087 v -1.37118 c -0.13625,-0.0253 -0.37034,-0.0413 -0.53557,-0.0413 -0.72473,0 -1.32987,0.41165 -1.56033,1.14434 h -0.066 v -1.05374 h -1.4451 z m 6.29277,0.12755 c 0.99215,0 1.58497,-0.46527 1.85674,-0.9965 h 0.05 v 0.86895 h 1.43278 v -4.23311 c 0,-1.67194 -1.36321,-2.17417 -2.56987,-2.17417 -1.32987,0 -2.35101,0.59282 -2.68003,1.74586 l 1.39147,0.19784 c 0.14857,-0.43265 0.56819,-0.80298 1.29726,-0.80298 0.69138,0 1.07042,0.35439 1.07042,0.97619 v 0.0246 c 0,0.42831 -0.44861,0.44861 -1.56468,0.56819 -1.22696,0.1319 -2.40101,0.49788 -2.40101,1.92268 0,1.24363 0.91025,1.90241 2.11691,1.90241 z m 0.387,-1.09505 c -0.6218,0 -1.06678,-0.2841 -1.06678,-0.83198 0,-0.57254 0.49861,-0.81097 1.16535,-0.90592 0.39135,-0.0536 1.17406,-0.15219 1.36756,-0.30873 v 0.74502 c 0,0.70443 -0.56819,1.30161 -1.46613,1.30161 z m 4.45126,3.33952 h 1.49075 v -3.36852 h 0.0616 c 0.23481,0.46093 0.72473,1.10739 1.81181,1.10739 1.49075,0 2.60683,-1.18131 2.60683,-3.26488 0,-2.10822 -1.14941,-3.25329 -2.61118,-3.25329 -1.11535,0 -1.58062,0.67109 -1.80746,1.12839 h -0.0863 v -1.04577 h -1.46613 z m 1.46177,-5.53471 c 0,-1.22697 0.52688,-2.02125 1.48641,-2.02125 0.99287,0 1.50307,0.84357 1.50307,2.02125 0,1.18637 -0.5189,2.05096 -1.50307,2.05096 -0.95084,0 -1.48641,-0.82328 -1.48641,-2.05096 z m 7.27623,-0.54355 c 0,-0.91388 0.56818,-1.44074 1.36682,-1.44074 0.7827,0 1.24363,0.49788 1.24363,1.35015 v 3.79683 h 1.49076 v -4.02729 c 0,-1.52771 -0.8646,-2.37999 -2.17853,-2.37999 -0.97185,0 -1.58932,0.44063 -1.88138,1.15738 h -0.0746 v -3.18298 h -1.45741 v 8.43288 h 1.49076 z m 10.61937,-0.94649 c -0.20582,-1.07114 -1.06244,-1.75455 -2.54451,-1.75455 -1.52336,0 -2.56116,0.74936 -2.55682,1.91907 -0.005,0.92257 0.56383,1.53133 1.77847,1.78281 l 1.07912,0.22685 c 0.5805,0.12755 0.85227,0.36236 0.85227,0.72037 0,0.43194 -0.46962,0.75733 -1.17768,0.75733 -0.68341,0 -1.12839,-0.2964 -1.25594,-0.86459 l -1.45379,0.13988 c 0.18552,1.16173 1.161,1.84876 2.71408,1.84876 1.58063,0 2.6967,-0.81893 2.70105,-2.01762 -0.005,-0.90156 -0.58485,-1.45307 -1.77919,-1.71253 l -1.0784,-0.23046 c -0.64282,-0.14422 -0.89793,-0.36671 -0.89358,-0.73342 -0.005,-0.42831 0.46889,-0.72473 1.09071,-0.72473 0.68776,0 1.05012,0.37469 1.16535,0.79067 z"
     id="path4"
     inkscape:connector-curvature="0"
     style="fill:#293854;stroke-width:0.7247237" />
  <path
     d="m 239.44219,371.78327 h 0.92258 c -0.27394,-1.42698 -1.46974,-2.40681 -3.02645,-2.40681 -1.89152,0 -3.22864,1.45597 -3.22864,3.7903 0,2.33507 1.32624,3.79032 3.28662,3.79032 1.75818,0 3.01195,-1.17116 3.01195,-2.99747 v -0.79285 h -2.81047 v 0.79285 h 1.94588 c -0.0253,1.32553 -0.89721,2.16186 -2.14736,2.16186 -1.36972,0 -2.4213,-1.03781 -2.4213,-2.95471 0,-1.91688 1.05158,-2.95469 2.36332,-2.95469 1.0668,0 1.79079,0.60225 2.10387,1.5712 z m 4.70129,5.1883 c 1.12405,0 1.94589,-0.56166 2.20533,-1.39799 l -0.82183,-0.23047 c -0.21597,0.57616 -0.71675,0.8646 -1.3835,0.8646 -0.99794,0 -1.68644,-0.645 -1.72557,-1.82993 h 4.01715 v -0.36091 c 0,-2.06039 -1.22479,-2.76699 -2.37782,-2.76699 -1.49873,0 -2.49377,1.18202 -2.49377,2.88223 0,1.70092 0.98055,2.83946 2.58001,2.83946 z m -1.72557,-3.32938 c 0.0573,-0.86098 0.66602,-1.62846 1.63933,-1.62846 0.92257,0 1.51322,0.69211 1.51322,1.62846 z m 6.16088,-0.11523 c 0,-0.96533 0.5979,-1.51323 1.41249,-1.51323 0.78922,0 1.26826,0.51528 1.26826,1.38351 v 3.4591 h 0.8501 v -3.51636 c 0,-1.41248 -0.75299,-2.0901 -1.87341,-2.0901 -0.83561,0 -1.35451,0.37468 -1.61395,0.93706 h -0.0725 v -0.86459 h -0.82111 v 5.53399 h 0.8501 z m 7.40522,3.44461 c 1.12405,0 1.94589,-0.56166 2.20534,-1.39799 l -0.82183,-0.23047 c -0.21597,0.57616 -0.71676,0.8646 -1.38351,0.8646 -0.99794,0 -1.68643,-0.645 -1.72556,-1.82993 h 4.01715 v -0.36091 c 0,-2.06039 -1.22479,-2.76699 -2.37782,-2.76699 -1.49946,0 -2.49379,1.18202 -2.49379,2.88223 0,1.70092 0.98056,2.83946 2.58002,2.83946 z m -1.72556,-3.32938 c 0.0573,-0.86098 0.66602,-1.62846 1.63933,-1.62846 0.92184,0 1.51321,0.69211 1.51321,1.62846 z m 5.31078,3.21415 h 0.8501 v -3.50187 c 0,-0.74937 0.59064,-1.29725 1.39799,-1.29725 0.22684,0 0.46092,0.0435 0.5189,0.0573 v -0.86459 c -0.0971,-0.007 -0.32106,-0.0145 -0.44715,-0.0145 -0.6624,0 -1.23928,0.37468 -1.44076,0.92258 h -0.058 v -0.83561 h -0.82111 z m 5.40353,0.12972 c 0.96534,0 1.46974,-0.5189 1.64296,-0.87909 h 0.0435 v 0.74937 h 0.8501 v -3.64609 c 0,-1.75818 -1.34073,-1.96037 -2.04662,-1.96037 -0.8356,0 -1.78716,0.28844 -2.2191,1.29725 l 0.80662,0.28844 c 0.1877,-0.40367 0.63051,-0.83633 1.44148,-0.83633 0.78197,0 1.16752,0.41454 1.16752,1.12405 v 0.029 c 0,0.41092 -0.41816,0.37469 -1.42698,0.50441 -1.02693,0.13335 -2.14735,0.36019 -2.14735,1.62846 0,1.08128 0.8356,1.70092 1.8879,1.70092 z m 0.12973,-0.76385 c -0.67762,0 -1.16753,-0.30294 -1.16753,-0.89359 0,-0.64863 0.59065,-0.8501 1.25377,-0.93707 0.36019,-0.0428 1.32625,-0.14349 1.47046,-0.3167 v 0.77835 c 0,0.69139 -0.54788,1.36901 -1.5567,1.36901 z m 6.36525,-4.89986 h -1.1813 v -1.32625 h -0.85082 v 1.32625 h -0.83561 v 0.72038 h 0.83561 v 3.4591 c 0,0.96533 0.77835,1.42626 1.49944,1.42626 0.31671,0 0.5189,-0.0573 0.63414,-0.10074 l -0.17321,-0.76386 c -0.0718,0.0145 -0.1877,0.0435 -0.37468,0.0435 -0.37469,0 -0.73487,-0.11523 -0.73487,-0.83633 v -3.22792 h 1.1813 z m 3.54028,5.64922 c 1.12404,0 1.94588,-0.56166 2.20533,-1.39799 l -0.82184,-0.23047 c -0.21597,0.57616 -0.71675,0.8646 -1.38349,0.8646 -0.99795,0 -1.68644,-0.645 -1.72557,-1.82993 h 4.01714 v -0.36091 c 0,-2.06039 -1.22478,-2.76699 -2.37782,-2.76699 -1.49945,0 -2.49377,1.18202 -2.49377,2.88223 0,1.70092 0.98054,2.83946 2.58002,2.83946 z m -1.72557,-3.32938 c 0.0573,-0.86098 0.66601,-1.62846 1.63932,-1.62846 0.92185,0 1.51323,0.69211 1.51323,1.62846 z m 10.39833,5.40498 c 1.32552,0 2.39232,-0.60513 2.39232,-2.03211 v -5.69271 h -0.82184 v 0.87908 h -0.0863 c -0.18771,-0.28844 -0.5334,-0.95155 -1.61396,-0.95155 -1.398,0 -2.36405,1.10955 -2.36405,2.81047 0,1.7292 1.00882,2.70974 2.34956,2.70974 1.08056,0 1.42698,-0.63413 1.61395,-0.93706 h 0.0718 v 1.12405 c 0,0.92257 -0.6479,1.34073 -1.54149,1.34073 -1.00519,0 -1.35885,-0.52977 -1.58569,-0.83633 l -0.67762,0.47542 c 0.34642,0.58051 1.02693,1.11027 2.26331,1.11027 z m -0.029,-3.04093 c -1.0668,0 -1.61397,-0.80735 -1.61397,-1.96038 0,-1.12405 0.53268,-2.03213 1.61397,-2.03213 1.0378,0 1.58497,0.83634 1.58497,2.03213 0,1.22478 -0.56166,1.96038 -1.58497,1.96038 z m 3.97728,0.8501 h 0.85082 v -3.50187 c 0,-0.74937 0.59066,-1.29725 1.398,-1.29725 0.22683,0 0.46092,0.0435 0.5189,0.0573 v -0.86459 c -0.0978,-0.007 -0.32105,-0.0145 -0.44716,-0.0145 -0.66311,0 -1.23928,0.37468 -1.44074,0.92258 h -0.058 v -0.83561 h -0.82184 z m 5.40426,0.12972 c 0.96534,0 1.46974,-0.5189 1.64295,-0.87909 h 0.0428 v 0.74937 h 0.85083 v -3.64609 c 0,-1.75818 -1.34074,-1.96037 -2.04662,-1.96037 -0.83633,0 -1.78717,0.28844 -2.21984,1.29725 l 0.80735,0.28844 c 0.18698,-0.40367 0.63051,-0.83633 1.44147,-0.83633 0.78126,0 1.16681,0.41454 1.16681,1.12405 v 0.029 c 0,0.41092 -0.41744,0.37469 -1.42626,0.50441 -1.02693,0.13335 -2.14736,0.36019 -2.14736,1.62846 0,1.08128 0.83561,1.70092 1.88791,1.70092 z m 0.12973,-0.76385 c -0.67762,0 -1.16753,-0.30294 -1.16753,-0.89359 0,-0.64863 0.59065,-0.8501 1.25377,-0.93707 0.36019,-0.0428 1.32552,-0.14349 1.46974,-0.3167 v 0.77835 c 0,0.69139 -0.54717,1.36901 -1.55598,1.36901 z m 3.95844,2.70973 h 0.8501 v -2.9257 h 0.0725 c 0.18698,0.30221 0.5479,0.96533 1.61396,0.96533 1.3835,0 2.34955,-1.10955 2.34955,-2.86773 0,-1.74441 -0.96605,-2.85396 -2.36405,-2.85396 -1.08056,0 -1.41248,0.66311 -1.59946,0.95155 h -0.10074 v -0.87908 h -0.82183 z m 0.83633,-4.8426 c 0,-1.23927 0.54717,-2.07561 1.58497,-2.07561 1.08129,0 1.61396,0.90808 1.61396,2.07561 0,1.1813 -0.54717,2.11837 -1.61396,2.11837 -1.02331,0 -1.58497,-0.8646 -1.58497,-2.11837 z m 6.19711,-0.56238 c 0,-0.96533 0.61602,-1.51323 1.45525,-1.51323 0.80009,0 1.28276,0.50441 1.28276,1.38351 v 3.4591 h 0.8501 v -3.51636 c 0,-1.42336 -0.75661,-2.0901 -1.8879,-2.0901 -0.87185,0 -1.36901,0.36381 -1.62846,0.93706 h -0.0718 v -2.70974 h -0.85083 v 7.37914 h 0.85083 z m 9.06412,-0.96533 c -0.2667,-0.78561 -0.86459,-1.31175 -1.96037,-1.31175 -1.16681,0 -2.03213,0.66311 -2.03213,1.60019 0,0.76385 0.4544,1.27551 1.47047,1.51322 l 0.92257,0.21596 c 0.55803,0.12973 0.82111,0.39643 0.82111,0.77836 0,0.47542 -0.5044,0.8646 -1.29725,0.8646 -0.69501,0 -1.1313,-0.29932 -1.28277,-0.89359 l -0.80661,0.20147 c 0.19784,0.9407 0.97257,1.44148 2.10387,1.44148 1.28638,0 2.16185,-0.70226 2.16185,-1.65745 0,-0.7711 -0.48267,-1.25739 -1.46974,-1.49872 l -0.82183,-0.20148 c -0.65588,-0.16233 -0.95084,-0.38193 -0.95084,-0.80734 0,-0.47541 0.50441,-0.82183 1.1813,-0.82183 0.74283,0 1.04868,0.41091 1.19652,0.79285 z m 4.3498,4.29471 h 0.82111 v -0.8501 h 0.10146 c 0.18698,0.30221 0.54717,0.96533 1.61395,0.96533 1.38351,0 2.34884,-1.10955 2.34884,-2.86773 0,-1.74441 -0.96533,-2.85396 -2.36333,-2.85396 -1.08056,0 -1.41248,0.66311 -1.59946,0.95155 h -0.0725 v -2.72423 h -0.8501 z m 0.8356,-2.767 c 0,-1.23927 0.54789,-2.07561 1.58569,-2.07561 1.08057,0 1.61397,0.90808 1.61397,2.07561 0,1.1813 -0.5479,2.11837 -1.61397,2.11837 -1.02331,0 -1.58569,-0.8646 -1.58569,-2.11837 z m 5.69996,4.8426 c 0.76748,0 1.30812,-0.40729 1.62917,-1.26826 l 2.35608,-6.32684 -0.92982,-0.0145 -1.52772,4.40994 h -0.0573 l -1.52771,-4.40994 h -0.92258 l 2.04662,5.56298 -0.15871,0.43193 c -0.30946,0.84358 -0.6914,0.92257 -1.31103,0.76386 l -0.21669,0.74937 c 0.0869,0.0435 0.33192,0.10145 0.61964,0.10145 z m 11.88401,-6.37031 c -0.2667,-0.78561 -0.86459,-1.31175 -1.96037,-1.31175 -1.16681,0 -2.03213,0.66311 -2.03213,1.60019 0,0.76385 0.4544,1.27551 1.47047,1.51322 l 0.92257,0.21596 c 0.55803,0.12973 0.82111,0.39643 0.82111,0.77836 0,0.47542 -0.5044,0.8646 -1.29725,0.8646 -0.69501,0 -1.1313,-0.29932 -1.28277,-0.89359 l -0.80661,0.20147 c 0.19784,0.9407 0.97257,1.44148 2.10387,1.44148 1.28638,0 2.16185,-0.70226 2.16185,-1.65745 0,-0.7711 -0.48267,-1.25739 -1.46974,-1.49872 l -0.82183,-0.20148 c -0.65588,-0.16233 -0.95084,-0.38193 -0.95084,-0.80734 0,-0.47541 0.50441,-0.82183 1.1813,-0.82183 0.74284,0 1.04867,0.41091 1.19652,0.79285 z m 3.70117,4.40994 c 1.12404,0 1.94588,-0.56166 2.20533,-1.39799 l -0.82183,-0.23047 c -0.21597,0.57616 -0.71675,0.8646 -1.3835,0.8646 -0.99794,0 -1.68644,-0.645 -1.72557,-1.82993 h 4.01715 v -0.36091 c 0,-2.06039 -1.22479,-2.76699 -2.37783,-2.76699 -1.49945,0 -2.49377,1.18202 -2.49377,2.88223 0,1.70092 0.98056,2.83946 2.58002,2.83946 z m -1.72557,-3.32938 c 0.0573,-0.86098 0.66602,-1.62846 1.63932,-1.62846 0.92186,0 1.51323,0.69211 1.51323,1.62846 z m 6.16088,-4.16499 h -0.8501 v 7.37914 h 0.8501 z m 3.87799,7.49437 c 1.12405,0 1.94516,-0.56166 2.20461,-1.39799 l -0.82111,-0.23047 c -0.21669,0.57616 -0.71747,0.8646 -1.3835,0.8646 -0.99794,0 -1.68643,-0.645 -1.72628,-1.82993 h 4.01786 v -0.36091 c 0,-2.06039 -1.22551,-2.76699 -2.37854,-2.76699 -1.49873,0 -2.49305,1.18202 -2.49305,2.88223 0,1.70092 0.97982,2.83946 2.58001,2.83946 z m -1.72628,-3.32938 c 0.058,-0.86098 0.66674,-1.62846 1.63932,-1.62846 0.92257,0 1.51322,0.69211 1.51322,1.62846 z m 7.55959,3.32938 c 1.22477,0 2.03212,-0.74936 2.17634,-1.72919 h -0.85083 c -0.15799,0.60514 -0.66312,0.96533 -1.32551,0.96533 -1.00882,0 -1.65745,-0.83561 -1.65745,-2.11837 0,-1.25377 0.66312,-2.07561 1.65745,-2.07561 0.74936,0 1.19579,0.46165 1.32551,0.96606 h 0.85083 c -0.14422,-1.0378 -1.02331,-1.72991 -2.19084,-1.72991 -1.49873,0 -2.49378,1.18202 -2.49378,2.86845 0,1.65745 0.95157,2.85324 2.50828,2.85324 z m 5.82605,-5.64922 h -1.18202 v -1.32625 h -0.8501 v 1.32625 h -0.83634 v 0.72038 h 0.83634 v 3.4591 c 0,0.96533 0.77834,1.42626 1.49872,1.42626 0.31671,0 0.5189,-0.0573 0.63413,-0.10074 l -0.17321,-0.76386 c -0.0718,0.0145 -0.18697,0.0435 -0.37467,0.0435 -0.37469,0 -0.73487,-0.11523 -0.73487,-0.83633 v -3.22792 h 1.18202 z m 1.27913,5.53399 h 0.8501 v -5.53399 h -0.8501 z m 0.43194,-6.45657 c 0.33193,0 0.60587,-0.25945 0.60587,-0.57688 0,-0.3167 -0.27394,-0.57615 -0.60587,-0.57615 -0.3312,0 -0.60515,0.25945 -0.60515,0.57615 0,0.31743 0.27395,0.57688 0.60515,0.57688 z m 2.8257,3.12719 c 0,-0.96533 0.59862,-1.51323 1.41249,-1.51323 0.78922,0 1.26826,0.51528 1.26826,1.38351 v 3.4591 h 0.85011 v -3.51636 c 0,-1.41248 -0.753,-2.0901 -1.87342,-2.0901 -0.8356,0 -1.35451,0.37468 -1.61396,0.93706 H 364.17 v -0.86459 h -0.82112 v 5.53399 h 0.8501 z m 7.31899,5.52021 c 1.32551,0 2.39231,-0.60513 2.39231,-2.03211 v -5.69271 h -0.82183 v 0.87908 h -0.0863 c -0.18697,-0.28844 -0.53339,-0.95155 -1.61396,-0.95155 -1.39799,0 -2.36404,1.10955 -2.36404,2.81047 0,1.7292 1.0088,2.70974 2.34955,2.70974 1.08056,0 1.42697,-0.63413 1.61396,-0.93706 h 0.0725 v 1.12405 c 0,0.92257 -0.64864,1.34073 -1.54221,1.34073 -1.0052,0 -1.35886,-0.52977 -1.5857,-0.83633 l -0.67689,0.47542 c 0.34569,0.58051 1.02693,1.11027 2.26259,1.11027 z m -0.029,-3.04093 c -1.06679,0 -1.61395,-0.80735 -1.61395,-1.96038 0,-1.12405 0.53339,-2.03213 1.61395,-2.03213 1.03781,0 1.5857,0.83634 1.5857,2.03213 0,1.22478 -0.56239,1.96038 -1.5857,1.96038 z m 7.37915,2.9257 c 0.76748,0 1.30812,-0.40729 1.62845,-1.26826 l 2.35608,-6.32684 -0.9291,-0.0145 -1.52772,4.40994 h -0.058 l -1.52772,-4.40994 h -0.92185 l 2.0459,5.56298 -0.15799,0.43193 c -0.31019,0.84358 -0.69211,0.92257 -1.31175,0.76386 l -0.21597,0.74937 c 0.0863,0.0435 0.3312,0.10145 0.61964,0.10145 z m 7.16027,-1.96037 c 1.49872,0 2.50754,-1.13854 2.50754,-2.85324 0,-1.72991 -1.00882,-2.86845 -2.50754,-2.86845 -1.49946,0 -2.50828,1.13854 -2.50828,2.86845 0,1.7147 1.00882,2.85324 2.50828,2.85324 z m 0,-0.76386 c -1.13855,0 -1.65745,-0.97983 -1.65745,-2.08938 0,-1.11027 0.5189,-2.1046 1.65745,-2.1046 1.13854,0 1.65744,0.99433 1.65744,2.1046 0,1.10955 -0.5189,2.08938 -1.65744,2.08938 z m 7.29289,-1.61396 c 0,1.0378 -0.79212,1.51322 -1.42626,1.51322 -0.7066,0 -1.21101,-0.5189 -1.21101,-1.32624 v -3.45838 h -0.8501 v 3.51636 c 0,1.41248 0.74936,2.08938 1.78716,2.08938 0.83561,0 1.3835,-0.44644 1.64296,-1.00882 h 0.0573 v 0.93707 h 0.85083 v -5.53399 h -0.85083 z m 2.40825,2.26259 h 0.85011 v -3.50187 c 0,-0.74937 0.59065,-1.29725 1.39799,-1.29725 0.22684,0 0.46092,0.0435 0.5189,0.0573 v -0.86459 c -0.0971,-0.007 -0.32105,-0.0145 -0.44716,-0.0145 -0.6624,0 -1.23927,0.37468 -1.44074,0.92258 h -0.058 v -0.83561 h -0.82111 z m 10.54836,-4.29471 c -0.2667,-0.78561 -0.8646,-1.31175 -1.95965,-1.31175 -1.16754,0 -2.03213,0.66311 -2.03213,1.60019 0,0.76385 0.45368,1.27551 1.46974,1.51322 l 0.92257,0.21596 c 0.55804,0.12973 0.82112,0.39643 0.82112,0.77836 0,0.47542 -0.50441,0.8646 -1.29654,0.8646 -0.69573,0 -1.13201,-0.29932 -1.28276,-0.89359 l -0.80734,0.20147 c 0.19785,0.9407 0.97258,1.44148 2.10387,1.44148 1.28639,0 2.16186,-0.70226 2.16186,-1.65745 0,-0.7711 -0.48267,-1.25739 -1.46974,-1.49872 l -0.82184,-0.20148 c -0.65515,-0.16233 -0.95084,-0.38193 -0.95084,-0.80734 0,-0.47541 0.50441,-0.82183 1.18203,-0.82183 0.74212,0 1.04795,0.41091 1.19579,0.79285 z m 3.00977,4.42443 c 0.96534,0 1.46974,-0.5189 1.64295,-0.87909 h 0.0428 v 0.74937 h 0.85083 v -3.64609 c 0,-1.75818 -1.34074,-1.96037 -2.04662,-1.96037 -0.83633,0 -1.78717,0.28844 -2.21983,1.29725 l 0.80734,0.28844 c 0.1877,-0.40367 0.63051,-0.83633 1.44147,-0.83633 0.78126,0 1.16681,0.41454 1.16681,1.12405 v 0.029 c 0,0.41092 -0.41743,0.37469 -1.42625,0.50441 -1.02694,0.13335 -2.14736,0.36019 -2.14736,1.62846 0,1.08128 0.83561,1.70092 1.8879,1.70092 z m 0.12974,-0.76385 c -0.67762,0 -1.16754,-0.30294 -1.16754,-0.89359 0,-0.64863 0.59065,-0.8501 1.25377,-0.93707 0.36019,-0.0428 1.32624,-0.14349 1.46974,-0.3167 v 0.77835 c 0,0.69139 -0.54717,1.36901 -1.55597,1.36901 z m 3.95843,0.63413 h 0.85083 v -3.4591 c 0,-0.81025 0.59065,-1.38351 1.25377,-1.38351 0.64501,0 1.09505,0.42179 1.09505,1.05231 v 3.7903 h 0.86461 v -3.60333 c 0,-0.71313 0.44715,-1.23928 1.2255,-1.23928 0.60514,0 1.12405,0.32105 1.12405,1.13854 v 3.70407 h 0.8501 v -3.70407 c 0,-1.30088 -0.69935,-1.90239 -1.68643,-1.90239 -0.79212,0 -1.37263,0.36381 -1.65745,0.93706 h -0.0573 c -0.27395,-0.59137 -0.75661,-0.93706 -1.48496,-0.93706 -0.72037,0 -1.25377,0.34569 -1.48423,0.93706 h -0.0718 v -0.86459 h -0.82183 z m 8.81844,2.0756 h 0.85083 v -2.9257 h 0.0718 c 0.18698,0.30221 0.54789,0.96533 1.61396,0.96533 1.3835,0 2.34955,-1.10955 2.34955,-2.86773 0,-1.74441 -0.96605,-2.85396 -2.36404,-2.85396 -1.08056,0 -1.41249,0.66311 -1.59947,0.95155 h -0.10073 v -0.87908 h -0.82184 z m 0.83633,-4.8426 c 0,-1.23927 0.54716,-2.07561 1.58498,-2.07561 1.08128,0 1.61395,0.90808 1.61395,2.07561 0,1.1813 -0.54716,2.11837 -1.61395,2.11837 -1.02331,0 -1.58498,-0.8646 -1.58498,-2.11837 z m 6.19711,-4.61214 h -0.85082 v 7.37914 h 0.85082 z m 3.87728,7.49437 c 1.12477,0 1.94588,-0.56166 2.20533,-1.39799 l -0.82111,-0.23047 c -0.21669,0.57616 -0.71747,0.8646 -1.38422,0.8646 -0.99794,0 -1.68571,-0.645 -1.72557,-1.82993 h 4.01715 v -0.36091 c 0,-2.06039 -1.22479,-2.76699 -2.37783,-2.76699 -1.49872,0 -2.49305,1.18202 -2.49305,2.88223 0,1.70092 0.97984,2.83946 2.5793,2.83946 z m -1.72557,-3.32938 c 0.058,-0.86098 0.66675,-1.62846 1.63932,-1.62846 0.92258,0 1.51323,0.69211 1.51323,1.62846 z m 9.23081,-1.08056 c -0.2667,-0.78561 -0.8646,-1.31175 -1.95966,-1.31175 -1.16752,0 -2.03213,0.66311 -2.03213,1.60019 0,0.76385 0.45369,1.27551 1.46974,1.51322 l 0.92258,0.21596 c 0.55804,0.12973 0.82111,0.39643 0.82111,0.77836 0,0.47542 -0.50441,0.8646 -1.29653,0.8646 -0.69573,0 -1.13129,-0.29932 -1.28275,-0.89359 l -0.80735,0.20147 c 0.19857,0.9407 0.97258,1.44148 2.1046,1.44148 1.28566,0 2.16112,-0.70226 2.16112,-1.65745 0,-0.7711 -0.48266,-1.25739 -1.46973,-1.49872 l -0.82112,-0.20148 c -0.65588,-0.16233 -0.95156,-0.38193 -0.95156,-0.80734 0,-0.47541 0.5044,-0.82183 1.18202,-0.82183 0.74212,0 1.04795,0.41091 1.1958,0.79285 z m -165.42689,18.91891 c 0.96533,0 1.46974,-0.5189 1.64295,-0.87909 h 0.0428 v 0.74936 h 0.85084 v -3.64608 c 0,-1.75818 -1.34075,-1.96038 -2.04663,-1.96038 -0.83633,0 -1.78717,0.28844 -2.21983,1.29725 l 0.80734,0.28844 c 0.18771,-0.40367 0.63052,-0.83632 1.44148,-0.83632 0.78125,0 1.1668,0.41453 1.1668,1.12404 v 0.029 c 0,0.41092 -0.41744,0.37468 -1.42625,0.50441 -1.02694,0.13335 -2.14736,0.36018 -2.14736,1.62845 0,1.08129 0.83561,1.70093 1.88791,1.70093 z m 0.12973,-0.76386 c -0.67762,0 -1.16754,-0.30293 -1.16754,-0.89359 0,-0.64862 0.59066,-0.8501 1.25377,-0.93706 0.3602,-0.0428 1.32625,-0.1435 1.46974,-0.31671 v 0.77836 c 0,0.69138 -0.54716,1.369 -1.55597,1.369 z m 4.80926,-2.69524 c 0,-0.96534 0.59789,-1.51323 1.41176,-1.51323 0.78923,0 1.26827,0.51528 1.26827,1.38349 v 3.45911 h 0.85083 v -3.51636 c 0,-1.41249 -0.75299,-2.0901 -1.87414,-2.0901 -0.83561,0 -1.35451,0.37468 -1.61396,0.93707 h -0.0718 v -0.86459 h -0.82184 v 5.53398 h 0.85082 z m 7.17404,3.4446 c 1.06679,0 1.42699,-0.66312 1.61469,-0.96533 h 0.10073 v 0.8501 h 0.82111 v -7.37913 h -0.8501 v 2.72423 h -0.0718 c -0.1877,-0.28844 -0.5189,-0.95156 -1.60019,-0.95156 -1.39799,0 -2.36332,1.10955 -2.36332,2.85396 0,1.75818 0.96533,2.86773 2.34882,2.86773 z m 0.11523,-0.76386 c -1.06606,0 -1.61396,-0.93707 -1.61396,-2.11837 0,-1.16752 0.5334,-2.0756 1.61396,-2.0756 1.03781,0 1.5857,0.83633 1.5857,2.0756 0,1.25378 -0.56238,2.11837 -1.5857,2.11837 z m 6.95083,2.72424 h 0.8501 v -2.92571 h 0.0718 c 0.1877,0.30221 0.54788,0.96533 1.61468,0.96533 1.3835,0 2.34883,-1.10955 2.34883,-2.86773 0,-1.74441 -0.96533,-2.85396 -2.36332,-2.85396 -1.08129,0 -1.41249,0.66312 -1.60019,0.95156 h -0.10074 v -0.87908 h -0.82112 z m 0.8356,-4.84261 c 0,-1.23927 0.5479,-2.0756 1.58497,-2.0756 1.08129,0 1.61469,0.90808 1.61469,2.0756 0,1.1813 -0.54789,2.11837 -1.61469,2.11837 -1.0233,0 -1.58497,-0.86459 -1.58497,-2.11837 z m 6.19712,-4.61213 h -0.8501 v 7.37913 h 0.8501 z m 3.80552,7.49436 c 1.49873,0 2.50827,-1.13854 2.50827,-2.85323 0,-1.72992 -1.00954,-2.86846 -2.50827,-2.86846 -1.49873,0 -2.50754,1.13854 -2.50754,2.86846 0,1.71469 1.00881,2.85323 2.50754,2.85323 z m 0,-0.76386 c -1.13854,0 -1.65744,-0.97982 -1.65744,-2.08937 0,-1.11028 0.5189,-2.1046 1.65744,-2.1046 1.13854,0 1.65744,0.99432 1.65744,2.1046 0,1.10955 -0.5189,2.08937 -1.65744,2.08937 z m 6.21306,-4.88535 h -1.18203 v -1.32625 h -0.8501 v 1.32625 h -0.83633 v 0.72036 h 0.83633 v 3.45911 c 0,0.96534 0.77763,1.42626 1.49873,1.42626 0.31671,0 0.5189,-0.0573 0.63414,-0.10074 l -0.17322,-0.76386 c -0.0718,0.0145 -0.18697,0.0435 -0.37468,0.0435 -0.37468,0 -0.73487,-0.11523 -0.73487,-0.83633 v -3.22794 h 1.18203 z m 3.68594,0 h -1.18202 v -1.32625 h -0.8501 v 1.32625 h -0.83634 v 0.72036 h 0.83634 v 3.45911 c 0,0.96534 0.77763,1.42626 1.49873,1.42626 0.3167,0 0.5189,-0.0573 0.63413,-0.10074 l -0.17321,-0.76386 c -0.0718,0.0145 -0.18697,0.0435 -0.37468,0.0435 -0.37468,0 -0.73487,-0.11523 -0.73487,-0.83633 v -3.22794 h 1.18202 z m 1.27841,5.53398 h 0.85083 v -5.53398 h -0.85083 z m 0.43267,-6.45656 c 0.3312,0 0.60514,-0.25945 0.60514,-0.57688 0,-0.31671 -0.27394,-0.57616 -0.60514,-0.57616 -0.3312,0 -0.60515,0.25945 -0.60515,0.57616 0,0.31743 0.27395,0.57688 0.60515,0.57688 z m 2.8257,3.12719 c 0,-0.96534 0.59789,-1.51323 1.41248,-1.51323 0.78923,0 1.26827,0.51528 1.26827,1.38349 v 3.45911 h 0.8501 v -3.51636 c 0,-1.41249 -0.75299,-2.0901 -1.87341,-2.0901 -0.83561,0 -1.35451,0.37468 -1.61397,0.93707 h -0.0725 v -0.86459 h -0.82111 v 5.53398 h 0.8501 z m 7.31898,5.52021 c 1.32552,0 2.39231,-0.60515 2.39231,-2.03213 v -5.69269 h -0.82184 v 0.87908 h -0.0863 c -0.18771,-0.28844 -0.5334,-0.95156 -1.61396,-0.95156 -1.398,0 -2.36406,1.10955 -2.36406,2.81048 0,1.72919 1.00882,2.70974 2.34956,2.70974 1.08057,0 1.42626,-0.63413 1.61396,-0.93707 h 0.0718 v 1.12405 c 0,0.92258 -0.64863,1.34074 -1.54149,1.34074 -1.00592,0 -1.35885,-0.52978 -1.5857,-0.83634 l -0.67762,0.47543 c 0.34642,0.5805 1.02694,1.11027 2.26332,1.11027 z m -0.029,-3.04094 c -1.06679,0 -1.61469,-0.80734 -1.61469,-1.96037 0,-1.12405 0.53341,-2.03213 1.61469,-2.03213 1.0378,0 1.58497,0.83633 1.58497,2.03213 0,1.22477 -0.56166,1.96037 -1.58497,1.96037 z m 6.83125,0.8501 h 0.8501 v -3.45911 c 0,-0.81024 0.59137,-1.38349 1.25377,-1.38349 0.64501,0 1.09578,0.42179 1.09578,1.05229 v 3.79031 h 0.8646 v -3.60332 c 0,-0.71313 0.44642,-1.23928 1.22478,-1.23928 0.60514,0 1.12405,0.32105 1.12405,1.13854 v 3.70406 h 0.85082 v -3.70406 c 0,-1.30088 -0.69936,-1.9024 -1.68643,-1.9024 -0.79285,0 -1.37263,0.36381 -1.65744,0.93707 h -0.058 c -0.27322,-0.59138 -0.75661,-0.93707 -1.48423,-0.93707 -0.72038,0 -1.25377,0.34569 -1.48424,0.93707 h -0.0725 v -0.86459 h -0.8211 z m 11.139,0.11523 c 1.12405,0 1.94516,-0.56165 2.20461,-1.39799 l -0.82112,-0.23046 c -0.21668,0.57616 -0.71747,0.86459 -1.38349,0.86459 -0.99867,0 -1.68643,-0.645 -1.72629,-1.82992 h 4.01714 v -0.36092 c 0,-2.06038 -1.22478,-2.76699 -2.37782,-2.76699 -1.49872,0 -2.49305,1.18202 -2.49305,2.88222 0,1.70093 0.97983,2.83947 2.58002,2.83947 z m -1.72629,-3.32937 c 0.058,-0.86098 0.66675,-1.62846 1.63932,-1.62846 0.92258,0 1.51323,0.69211 1.51323,1.62846 z m 7.71758,-2.31984 h -1.1813 v -1.32625 h -0.85083 v 1.32625 h -0.8356 v 0.72036 h 0.8356 v 3.45911 c 0,0.96534 0.77836,1.42626 1.49946,1.42626 0.3167,0 0.51818,-0.0573 0.63413,-0.10074 l -0.17321,-0.76386 c -0.0725,0.0145 -0.1877,0.0435 -0.37468,0.0435 -0.37468,0 -0.73487,-0.11523 -0.73487,-0.83633 v -3.22794 h 1.1813 z m 2.24882,2.20461 c 0,-0.96534 0.61601,-1.51323 1.45525,-1.51323 0.80009,0 1.28275,0.50441 1.28275,1.38349 v 3.45911 h 0.8501 v -3.51636 c 0,-1.42335 -0.7566,-2.0901 -1.8879,-2.0901 -0.87184,0 -1.369,0.36381 -1.62846,0.93707 h -0.0718 v -2.70974 h -0.85082 v 7.37913 h 0.85082 z m 7.39218,3.4446 c 1.49873,0 2.50754,-1.13854 2.50754,-2.85323 0,-1.72992 -1.00881,-2.86846 -2.50754,-2.86846 -1.49873,0 -2.50755,1.13854 -2.50755,2.86846 0,1.71469 1.00882,2.85323 2.50755,2.85323 z m 0,-0.76386 c -1.13854,0 -1.65745,-0.97982 -1.65745,-2.08937 0,-1.11028 0.51891,-2.1046 1.65745,-2.1046 1.13854,0 1.65744,0.99432 1.65744,2.1046 0,1.10955 -0.5189,2.08937 -1.65744,2.08937 z m 5.89563,0.76386 c 1.06607,0 1.42698,-0.66312 1.61396,-0.96533 h 0.10073 v 0.8501 h 0.82184 v -7.37913 h -0.8501 v 2.72423 h -0.0725 c -0.18699,-0.28844 -0.51891,-0.95156 -1.59948,-0.95156 -1.39798,0 -2.36405,1.10955 -2.36405,2.85396 0,1.75818 0.96607,2.86773 2.34956,2.86773 z m 0.11523,-0.76386 c -1.0668,0 -1.61396,-0.93707 -1.61396,-2.11837 0,-1.16752 0.53267,-2.0756 1.61396,-2.0756 1.0378,0 1.58497,0.83633 1.58497,2.0756 0,1.25378 -0.56166,2.11837 -1.58497,2.11837 z m 8.57856,0.77836 c 0.96605,0 1.47046,-0.5189 1.64295,-0.87909 h 0.0435 v 0.74936 h 0.8501 v -3.64608 c 0,-1.75818 -1.34001,-1.96038 -2.04662,-1.96038 -0.83561,0 -1.78716,0.28844 -2.2191,1.29725 l 0.80734,0.28844 c 0.18699,-0.40367 0.63052,-0.83632 1.44076,-0.83632 0.78197,0 1.16752,0.41453 1.16752,1.12404 v 0.029 c 0,0.41092 -0.41816,0.37468 -1.42698,0.50441 -1.02693,0.13335 -2.14735,0.36018 -2.14735,1.62845 0,1.08129 0.83633,1.70093 1.88791,1.70093 z m 0.12972,-0.76386 c -0.67689,0 -1.16753,-0.30293 -1.16753,-0.89359 0,-0.64862 0.59138,-0.8501 1.25449,-0.93706 0.3602,-0.0428 1.32553,-0.1435 1.46974,-0.31671 v 0.77836 c 0,0.69138 -0.54788,1.369 -1.5567,1.369 z m 4.07439,0.63413 h 0.82112 v -0.8501 h 0.10146 c 0.18698,0.30221 0.54716,0.96533 1.61396,0.96533 1.3835,0 2.34883,-1.10955 2.34883,-2.86773 0,-1.74441 -0.96533,-2.85396 -2.36332,-2.85396 -1.08057,0 -1.41249,0.66312 -1.59947,0.95156 h -0.0725 v -2.72423 h -0.8501 z m 0.83561,-2.767 c 0,-1.23927 0.5479,-2.0756 1.5857,-2.0756 1.08056,0 1.61396,0.90808 1.61396,2.0756 0,1.1813 -0.54789,2.11837 -1.61396,2.11837 -1.02331,0 -1.5857,-0.86459 -1.5857,-2.11837 z m 7.59873,2.88223 c 1.49946,0 2.50827,-1.13854 2.50827,-2.85323 0,-1.72992 -1.00881,-2.86846 -2.50827,-2.86846 -1.49872,0 -2.50754,1.13854 -2.50754,2.86846 0,1.71469 1.00882,2.85323 2.50754,2.85323 z m 0,-0.76386 c -1.13854,0 -1.65744,-0.97982 -1.65744,-2.08937 0,-1.11028 0.5189,-2.1046 1.65744,-2.1046 1.13854,0 1.65745,0.99432 1.65745,2.1046 0,1.10955 -0.51891,2.08937 -1.65745,2.08937 z m 8.13285,-4.88535 h -0.92185 l -1.52772,4.40994 h -0.058 l -1.52772,-4.40994 h -0.92185 l 2.0459,5.53398 h 0.86532 z m 3.24459,5.64921 c 1.12477,0 1.94588,-0.56165 2.20533,-1.39799 l -0.8211,-0.23046 c -0.2167,0.57616 -0.71748,0.86459 -1.38423,0.86459 -0.99794,0 -1.68571,-0.645 -1.72557,-1.82992 h 4.01715 v -0.36092 c 0,-2.06038 -1.22479,-2.76699 -2.37782,-2.76699 -1.49873,0 -2.49306,1.18202 -2.49306,2.88222 0,1.70093 0.97984,2.83947 2.5793,2.83947 z m -1.72557,-3.32937 c 0.058,-0.86098 0.66675,-1.62846 1.63933,-1.62846 0.92257,0 1.51322,0.69211 1.51322,1.62846 z"
     id="path6"
     inkscape:connector-curvature="0"
     style="fill:#73839c;stroke-width:0.7247237" />
  <g
     clip-path="url(#clip0_0:1)"
     id="g46"
     transform="scale(0.72472373)">
    <path
       d="M 457.317,387.058 C 404.575,382.88 269.437,364.62 258.586,208.733 247.735,52.8458 450.809,40.9671 523.844,134.346 c 73.035,93.379 155.844,127.479 147.859,163.111 -7.985,35.632 -161.644,93.779 -214.386,89.601 z"
       id="path8"
       inkscape:connector-curvature="0"
       style="fill:#eaeef2" />
    <g
       id="g12"
       style="filter:url(#filter0_d_0:1)">
      <path
         d="M 642,132 H 297 c -2.761,0 -5,2.239 -5,5 v 227 c 0,2.761 2.239,5 5,5 h 345 c 2.761,0 5,-2.239 5,-5 V 137 c 0,-2.761 -2.239,-5 -5,-5 z"
         id="path10"
         inkscape:connector-curvature="0"
         style="fill:#ffffff" />
    </g>
    <path
       d="M 534,417 H 400 v 9 h 134 z"
       id="path14"
       inkscape:connector-curvature="0"
       style="fill:#eaeef2" />
    <g
       id="g18"
       style="opacity:0.62400004">
      <path
         d="m 365,52.714 h -4.286 V 57 h -1.428 V 52.714 H 355 v -1.428 h 4.286 V 47 h 1.429 v 4.286 H 365 Z"
         id="path16"
         inkscape:connector-curvature="0"
         style="opacity:0.62400004;fill:#233952" />
    </g>
    <g
       id="g22"
       style="opacity:0.62400004">
      <path
         d="m 398,57.714 h -4.286 V 62 h -1.428 V 57.714 H 388 v -1.428 h 4.286 V 52 h 1.429 v 4.286 H 398 Z"
         id="path20"
         inkscape:connector-curvature="0"
         style="opacity:0.62400004;fill:#233952" />
    </g>
    <g
       id="g26"
       style="opacity:0.62400004">
      <path
         d="m 432,65.714 h -4.286 V 70 h -1.428 V 65.714 H 422 v -1.428 h 4.286 V 60 h 1.429 v 4.286 H 432 Z"
         id="path24"
         inkscape:connector-curvature="0"
         style="opacity:0.62400004;fill:#233952" />
    </g>
    <g
       id="g30"
       style="opacity:0.62400004">
      <path
         d="m 331,65.714 h -4.286 V 70 h -1.428 V 65.714 H 321 v -1.428 h 4.286 V 60 h 1.429 v 4.286 H 331 Z"
         id="path28"
         inkscape:connector-curvature="0"
         style="opacity:0.62400004;fill:#233952" />
    </g>
    <g
       id="g34"
       style="opacity:0.62400004">
      <path
         d="m 300,85.714 h -4.286 V 90 h -1.428 V 85.714 H 290 v -1.428 h 4.286 V 80 h 1.429 v 4.286 H 300 Z"
         id="path32"
         inkscape:connector-curvature="0"
         style="opacity:0.62400004;fill:#233952" />
    </g>
    <g
       id="g38"
       style="opacity:0.62400004">
      <path
         d="m 273,110.714 h -4.286 V 115 h -1.428 v -4.286 H 263 v -1.428 h 4.286 V 105 h 1.429 v 4.286 H 273 Z"
         id="path36"
         inkscape:connector-curvature="0"
         style="opacity:0.62400004;fill:#233952" />
    </g>
    <rect
       x="413"
       y="278"
       width="26"
       height="22.5"
       rx="3"
       id="rect40"
       style="opacity:0.4;fill:#1493a4" />
    <rect
       x="445"
       y="258"
       width="26"
       height="42.5"
       rx="3"
       id="rect42"
       style="opacity:0.4;fill:#1493a4" />
    <rect
       x="477"
       y="215"
       width="26"
       height="85"
       rx="3"
       id="rect44"
       style="opacity:0.4;fill:#1493a4" />
  </g>
  <defs
     id="defs68">
    <filter
       id="filter0_d_0:1"
       x="284"
       y="124"
       width="383"
       height="265"
       filterUnits="userSpaceOnUse"
       style="color-interpolation-filters:sRGB">
      <feFlood
         flood-opacity="0"
         result="BackgroundImageFix"
         id="feFlood48" />
      <feColorMatrix
         in="SourceAlpha"
         type="matrix"
         values="0 0 0 0 0 0 0 0 0 0 0 0 0 0 0 0 0 0 127 0"
         result="hardAlpha"
         id="feColorMatrix50" />
      <feMorphology
         radius="2"
         operator="dilate"
         in="SourceAlpha"
         result="effect1_dropShadow_0:1"
         id="feMorphology52" />
      <feOffset
         dx="6"
         dy="6"
         id="feOffset54" />
      <feGaussianBlur
         stdDeviation="6"
         id="feGaussianBlur56" />
      <feColorMatrix
         type="matrix"
         values="0 0 0 0 0.0875 0 0 0 0 0.0856771 0 0 0 0 0.0856771 0 0 0 0.06 0"
         id="feColorMatrix58" />
      <feBlend
         mode="normal"
         in2="BackgroundImageFix"
         result="effect1_dropShadow_0:1"
         id="feBlend60" />
      <feBlend
         mode="normal"
         in="SourceGraphic"
         in2="effect1_dropShadow_0:1"
         result="shape"
         id="feBlend62" />
    </filter>
    <clipPath
       id="clip0_0:1">
      <rect
         width="414.23801"
         height="384"
         transform="translate(258,42)"
         id="rect65"
         x="0"
         y="0"
         style="fill:#ffffff" />
    </clipPath>
  </defs>
</svg>
